<?xml version="1.0" encoding="utf-8"?>
<!-- Generator: Adobe Illustrator 28.0.0, SVG Export Plug-In . SVG Version: 6.00 Build 0)  -->
<svg version="1.1" id="Layer_1" xmlns="http://www.w3.org/2000/svg" xmlns:xlink="http://www.w3.org/1999/xlink" x="0px" y="0px"
	 viewBox="0 0 501 500" style="enable-background:new 0 0 501 500;" xml:space="preserve">
<style type="text/css">
	.st0{fill:none;stroke:#000000;stroke-width:5;stroke-miterlimit:10;}
	.st1{fill:#202020;}
</style>
<g>
	<g>
		<path d="M284.8,280.9c12.8-10,25.7-20.1,39.2-30.5c-7.5-2.4-14.4-4.6-21.4-6.8c-6.1-2-12.3-3.9-18.3-6c-5.5-2-6-8.7-1.3-12.3
			c8.5-6.7,16.9-13.4,25.6-19.8c1.8-1.3,4.7-1.7,7-1.5c8.9,1,17.8,2.4,26.7,3.7c9.2,1.3,18.4,2.6,27.5,4.2c2.4,0.4,4.1-0.1,5.8-1.5
			c8.3-6.6,16.3-13.8,26.1-18.4c11.8-5.6,24.3-7.8,37.3-6.5c8.6,0.9,14.8,4.9,17.9,13.4c2.9,7.9-0.1,16.9-6.5,21.9
			c-16.7,13.1-33.4,26.2-50.3,39.1c-2.1,1.6-2.8,3.3-3,5.7c-1.1,12.4-2.3,24.7-3.5,37.1c-0.3,3.3-0.8,6.6-0.9,9.9
			c-0.2,4.5-3,7.1-6.2,9.5c-7.7,5.9-15.3,11.8-22.9,17.7c-2.4,1.9-5,2.5-7.8,1.2c-2.8-1.2-3.7-3.7-3.9-6.5
			c-0.7-10.9-1.4-21.7-2.1-32.6c0-0.5-0.3-1.1-0.5-2.2c-3.3,2.5-6.3,4.8-9.3,7.1c-9.2,7.1-18.3,14.3-27.7,21.2
			c-6.8,5-14.7,6.7-23,6.3c-9.4-0.5-17.7-4-24.4-10.6c-4.5-4.5-8.1-9.8-12.1-14.8c-3.4-4.2-6.5-8.7-10-12.8
			c-3.5-4.1-3.1-8.7,1.3-11.8c4.2-3,8-6.4,12-9.6c2.6-2,5.2-2.7,8.6-1.3C271.2,276.1,278,278.4,284.8,280.9z M364.8,321.3
			c3.7-2.9,6.7-5.8,10.2-7.9c3.2-1.9,4.3-4.5,4.6-7.9c1.4-15.4,2.8-30.8,4.3-46.1c0.2-2.4,0.5-4.8,2.9-6.5c5.6-4,10.9-8.3,16.3-12.6
			c12.9-10.1,25.9-20.3,38.8-30.4c1.9-1.5,2.8-3.5,2.2-5.9c-0.6-2.6-2.4-4.2-5-4.6c-1.8-0.3-3.6-0.3-5.5-0.3
			c-10.7-0.4-21,1.6-29.9,7.6c-10.1,6.8-19.8,14.5-29.5,22c-14.3,11-28.4,22.1-42.6,33.2c-12.9,10.1-25.7,20.1-38.5,30.2
			c-3.7,2.9-7.3,4.8-12.2,2.5c-4.6-2.2-9.5-3.7-14.2-5.8c-3.1-1.4-5.4-1.2-8,1.2c-1.5,1.4-1.6,2.3-0.5,3.7
			c4.8,6.1,9.4,12.3,14.4,18.2c8.6,10.3,23.8,11.4,33.6,3.5c5.9-4.7,12-9.1,17.9-13.7c8.9-6.9,17.7-14,26.5-20.9
			c2.2-1.8,4.8-2.4,7.6-1.2c2.9,1.3,4,3.7,4.2,6.7C363.3,297.6,364,309.1,364.8,321.3z M357.5,224.2c-1.6-0.3-2.7-0.6-3.8-0.8
			c-11.7-1.7-23.5-3.2-35.2-5.2c-2.9-0.5-4.6,0.4-6.5,1.8c-0.5,0.4-1,0.9-1.5,1.3c-3,2.4-6.1,4.8-9.3,7.4
			c11.5,3.7,22.4,7.2,33.3,10.8c1.8,0.6,3.1,0.6,4.7-0.8c2.4-2.2,5.2-4,7.7-6C350.4,229.9,353.7,227.2,357.5,224.2z"/>
	</g>
	<circle class="st0" cx="251.4" cy="251.5" r="200"/>
	<g>
		<g>
			<g>
				<g>
					<g>
						<path class="st1" d="M71.4,337.3c0.1,0.2,0.5,0.2,0.5-0.2l-0.6-0.4L71.4,337.3z"/>
						<path class="st1" d="M73.1,335.3c-0.2-0.5-0.7-1-1.3-0.9c0.5,0.5,0.3,0.6,0.9,1.1c0,0.4-0.3,0.5-0.6,0.4
							c0.1,0.2-0.2,0.5,0.1,0.8c0.6-0.3,0.7-0.9,0.4-1.5C72.8,335.1,73,335.3,73.1,335.3z"/>
						<path class="st1" d="M80.7,302.7l-0.1,0.2C80.6,302.8,80.7,302.8,80.7,302.7z"/>
						<path class="st1" d="M85.2,282.4c0,0.2,0,0.2,0.1,0.3C85.2,282.5,85.2,282.4,85.2,282.4z"/>
						<path class="st1" d="M86.6,279.1c0,0.1-0.1,0.1-0.1,0.2C86.6,279.2,86.6,279.1,86.6,279.1z"/>
						<path class="st1" d="M80.7,302.7l0.3-0.5C80.8,302.1,80.8,302.4,80.7,302.7z"/>
						<path class="st1" d="M72.4,330.5c0,0.1,0,0.2,0.1,0.3C72.5,330.7,72.5,330.6,72.4,330.5C72.5,330.5,72.5,330.5,72.4,330.5z"/>
						<path class="st1" d="M79.4,311.8l0,0.2c0.1,0.1,0.1,0.1,0.2,0.2L79.4,311.8z"/>
						<path class="st1" d="M78.2,318.7c0.1-0.2-0.5-0.3-0.7-0.4c0.2,0.1,0.3,0.3,0.3,0.4C77.9,318.7,78,318.7,78.2,318.7z"/>
						<path class="st1" d="M75,329.4l0,0.2C75,329.5,75,329.4,75,329.4z"/>
						<path class="st1" d="M80.5,306.8c0.1,0,0.2,0,0.2,0C80.7,306.8,80.6,306.8,80.5,306.8z"/>
						<path class="st1" d="M115.1,113.4C115.2,113.4,115.2,113.4,115.1,113.4C115.2,113.3,115.2,113.3,115.1,113.4z"/>
						<path class="st1" d="M119.5,105.9l0,0.1c0.1,0,0.2,0.1,0.3,0.1L119.5,105.9z"/>
						<path class="st1" d="M88.6,272.8C88.6,272.8,88.6,272.8,88.6,272.8C88.6,273,88.6,272.9,88.6,272.8z"/>
						<path class="st1" d="M99.9,214.4c-0.6,0.6-0.4-1.2-1.2-0.3C99,214,99.4,215.1,99.9,214.4z"/>
						<path class="st1" d="M72.5,330.3c0-0.1,0-0.2,0.1-0.3C72.6,330.2,72.5,330.2,72.5,330.3z"/>
						<path class="st1" d="M98.7,214C98.7,214,98.7,214,98.7,214L98.7,214C98.7,214.1,98.7,214.1,98.7,214z"/>
						<path class="st1" d="M91.2,258.1c-0.1,0-0.2,0.1-0.3,0.1C91,258.2,91,258.2,91.2,258.1z"/>
						<path class="st1" d="M88.2,268.9l0.1-0.3C88.3,268.7,88.2,268.8,88.2,268.9z"/>
						<path class="st1" d="M91.5,252.3c0.1-0.1,0.2-0.2,0.1-0.4c0,0-0.1,0-0.1,0C91.6,252,91.7,252.1,91.5,252.3z"/>
						<path class="st1" d="M92.7,246.4c0,0-0.1,0.1-0.1,0.1c0,0.1,0,0.1,0,0.2L92.7,246.4z"/>
						<path class="st1" d="M111.8,131.4c0.2-0.1,0.4-0.1,0.5-0.2C111.9,131.2,112,130.3,111.8,131.4z"/>
						<path class="st1" d="M72.8,330.5c-0.1-0.1-0.2-0.1-0.2-0.2c0,0.1,0,0.1,0,0.2C72.6,330.6,72.7,330.6,72.8,330.5z"/>
						<path class="st1" d="M87.2,251.2l0.3-0.9C87.4,250.5,87.3,250.8,87.2,251.2z"/>
						<path class="st1" d="M103.4,173.7l0-0.2C103.3,173.6,103.3,173.6,103.4,173.7z"/>
						<path class="st1" d="M88,247.5c0.2-0.1,0.4-0.3,0.5-0.5c0,0-0.1-0.1-0.1-0.1L88,247.5z"/>
						<path class="st1" d="M112.4,131.2C112.4,131.2,112.4,131.2,112.4,131.2C112.4,131.2,112.4,131.2,112.4,131.2z"/>
						<path class="st1" d="M112.3,124.7c-0.2,0.9,0.6,0.6,1,0.8c0,1.1-0.6,0.4-1.1,0.7c0.1,0.7,0.6,1.3,0.5,1.8
							c-0.1,0-0.2,0.1-0.3,0c0.4,0.8-0.4,2.1,0.2,3.1c-0.1,0-0.1,0.1-0.2,0.1c0.4-0.1,0.8,0,1,0.1c-0.1,0.4,0.3,0.8-0.2,0.9
							c0.1-0.2-0.1-0.3-0.2-0.4l0.1,0.5c-0.8,0.2-0.1-0.6-0.6-0.7c0.1,0.9,0.4,1.9,0.1,2.5c-0.7,0,0.1-1.5-0.7-0.8l0.4-0.9
							c-1.2,0.5,0.2-0.6-1.1-0.1c-0.4,1.2,0.1,1.5-0.4,2.7c0.3,0.4,0.6,0,0.9,0.4c0.3,1.9-2,1.1-1.3,2.6c0.4,0.4,1.2,0.7,0.6,1.6
							l-0.7-0.5c-0.3,1.2,0.9,0.9,0.2,2.1c-0.2-0.3-0.1-1-0.2-0.9c-0.8,0.7,0.3,0.7,0.2,1.3l-0.7,0c-0.2,1.3,0,2.9-0.1,4.4
							c-0.2-0.1-0.3-0.4-0.6-0.1c0,1.9-0.9,3.9-1.6,5.6l0.4,0.8c0,0.2-0.3,0.2-0.4,0c-0.4,0.6,0.4,0.1,0.5,0.5
							c0,0.4-0.4,0.5-0.6,0.2c0.2,1.3,0.4,3.7-0.5,4.8l-0.1-0.3c-0.4,1,1,1.4,0.2,2.2l-0.1-0.2c-0.7,2.1-0.6,4.6-1.8,6.1
							c0.8,0.5-0.8,2.1,0.3,2.4c-0.8,1.1-1,0.7-1.7,2.4c-0.1,0.5,0.6,0.8,0.6,1.4l-0.6-0.1l0.5,0.9l-0.8,0.3l0,0.6
							c0.1-0.2,0.4-0.4,0.5-0.3c0.1,0.9-0.8,2-1.1,1.9l0.1,2.1c-0.2-0.1-0.3-0.4-0.4-0.7c0.4,1.2-0.7,0.1-0.3,1.2
							c0.2-0.1,0.3,0.1,0.5,0.2c-0.5,0.4-0.7,1.5-0.7,2.4l-0.4-0.2c-0.4,1.5-0.4,3.2-0.8,4.8c0.3-0.6,1-0.3,1,0.2l-0.7,0.1
							c0.3,0.4,0.3-0.5,0.7,0.3c-0.2,0.6-0.8,0.3-0.9-0.1l0.1,0.8c-0.2,0-0.3-0.2-0.5-0.3c0.3,0.4-0.9,1.2-0.3,1.8l-0.2,0
							c-0.3,1.7-0.3,2.5-0.5,3.8c0.5,0.1,0.3,0.6,0.7,1.1c-0.4,1-1,2-1.2,3.2c0.1,0.9,0.4,0.3,0.7,0.8c-0.5,0-0.7,1.2-0.9,0.5
							c-0.2,1.5-0.3,1.9-0.2,3.8c0.2-0.2,0.4-0.4,0.5-0.2c0,0.3-0.4,0.7-0.6,0.6l0-0.1c0.3,2.2-2.4,4.4-1.7,6.3l0-0.1l0.2,1.8
							c-0.2,0.8-0.3-0.5-0.7,0c0.5,2-0.7,2.9-0.4,4.5c-1.7,0.9-0.7,4.1-2,5.5l0.4,0c0.3,0.5-0.3,0.4-0.4,0.7c0.3,0,0.4-0.4,0.5-0.1
							c-0.3,3.5-1.9,7-3,10.4c-0.4,1.3,1.7,1.1,0.5,2.5l-0.6-0.6c0.3,2.8-1.1,5.3-0.9,8c-0.1-0.2-0.3-0.2-0.3-0.5
							c-0.6,0.4-0.4,2,0,2.1c-0.1,0.4-0.4,0-0.6,0.2c-0.4,0.5,0.3,1.5-0.2,1.7c-0.1,0-0.1-0.2-0.1-0.3c0.2,0.4-0.4,1.6,0.2,1.4
							c-0.5,0.9-0.1,1.9-0.6,2.6c0.5,0.6-0.6,1.6,0.2,1.9c-0.9-0.2-1.1,1.5-0.8,2.2c-0.2-0.3-0.4,0.5-0.7,0.2
							c-0.1,0.7-0.1,1.4,0.4,1.3c-1.3,1.1,0.3,2.7-1.2,3.2c0.1,2.1,0,4.1-0.2,6c-0.9-0.2,0.3-2-0.6-2.2c0,1.8,0.6,3,0,4.7
							c-0.2,0.4-0.3-0.3-0.5-0.5c0,1.8-0.8,3.4-0.6,5c-0.1,0-0.1-0.2-0.2-0.4c0,0.3-0.3,0.7,0.1,0.7l0-0.3c0.7-0.4,1,1.5,1.3,1.6
							c-1-0.8-0.6,1.5-1.9,0.4c0,0.2,0.2,0.5,0.5,0.5c-0.1,0.3-0.3,0.3-0.6,0c0,1.1,0.5,0.8,0.3,1.8c-0.2,0-0.2-0.3-0.4-0.4
							c0.3,0.6,0.6,1.2,0.2,2c-0.1-0.1-0.3,0-0.2-0.3c-0.2,1.5,0.5,2.7-0.2,4.2c-0.8-0.6-0.4,0.5-1.1,0.4l0,0.9l0.4-0.3
							c-0.2,0.7,0.2,1.5-0.1,2.1l-0.2-0.6l-0.1,1.4l0.4-0.7c0.2,0.8,0.9,0.1,0.5,1.1c0-0.2-0.2,0.7-0.7,1c0,0,0,0,0,0
							c0.2,0.4,0.3,0.8,0,1.4c-0.3,0.1-0.8-0.3-1-0.2c0.5,0.5-0.2,1.8,0.4,2.4c-0.1-0.2-0.5-0.3-0.6-0.2l0.4,0.4
							c-0.2,0.3-0.3,0.3-0.6,0.2c-0.3,1,1-0.1,0.3,1c0-0.1-0.1-0.1-0.1-0.3c-0.5,1.2-0.2,2.5-0.6,3.5c-0.8,0.2,0-1-0.7-0.8
							c-0.2,1.7,0.2,3.6-0.3,5.1l0.1-0.3c1,0.4-0.8,1.1-0.4,2c0-0.2-0.5-0.4-0.4-0.3c-0.4,1.1-0.2,2.3-0.2,4l-0.2-0.3
							c-0.4,0.6-0.5,1.7-0.7,2.3c0.2,0.3,0.1,0.6,0.5,0.5c-1.9,1.8,0,4.2-1.6,5.9c0-0.2-0.1-0.6-0.2-0.4l-0.1,1.7
							c0.5,0,0.3-0.2,0.7-0.4c0.2,0.3,0.3,0.8,0.3,1.2c-0.2-0.8-0.7-0.1-1,0.1c0.1,0,0.3,0.1,0.4,0.1c-1,0.7,0.9,0.3,0.1,1.4
							l-0.2-0.1c0,0.5,0.3,0.9,0.1,1.4c-0.6,0.1-0.2-0.5-0.6-0.6c-0.1,0.7,0.7,1.5,0.1,2c-0.1-0.3,0-0.7-0.1-1
							c-0.7,0.5-0.6,0.6-0.8,1.1l0,0l-0.5,1l0.2-0.2c1.2,1.1-0.1,1.7,0.6,3c-0.6-1.2-0.5-0.3-1-0.5c-0.2,0.2-0.5,0.6-0.6,0.5
							c0.4,0.6-0.6,0.8,0,1.7c-0.2,0-0.1,0.6-0.6,0.3c0,0.7,0.4-0.1,0.6,0c0.4,1.2-1.3,2.3-0.7,4c0.1,1.4,0.7,1.7,0.8,3
							c-0.4,0.3-0.6-0.5-0.6-0.5c-0.4,0.6-0.5,1.1-0.4,1.8c-0.1-0.2-0.3-0.1-0.6,0.1c0,0.5,0.6,0.5,0.2,1.1
							c-0.2-0.2-0.5-0.4-0.7-0.6c0.1,0.6,0.3,1.3,0.4,1.9c-0.4,0.1-0.4-0.5-0.6-0.7c0,0.7,0,1.8,0.4,2.1l0.3-0.4
							c0,0.3-0.5,0-0.5-0.2c-0.3-0.7,0.4-0.8,0.5-0.8l0,0.5c1.2-0.2,0.2-1.8,0.4-2.6l0.7,0.5l-0.5-1c0.3-0.1,0.7-0.2,0.8,0.3
							c0.5-0.5-0.2-0.6,0.4-1c0.1,0,0.1,0,0.1,0.1l-0.1-0.7c0.1,0.2,0.6,0,0.4,0.4c0.7-1-0.3-1.9,0.4-2.2l0,0.1c0-1.6-0.6-0.3-1-1.5
							l1.6-0.5l-0.6-0.3c0.1-0.2,0.2-0.4,0.4-0.3c-0.3-0.7-0.3,0-0.6-0.4c0.7-0.6,0.2-2.1,1.1-2.1c-0.4-0.4-0.5,0.6-0.7-0.2
							c1.1,0,0-1,0.6-1.5c0.5,0.3,0.1,0.9,0.7,0.3c-0.8-0.6,0.5-1.3,0.4-1.9c-0.7-0.2,0-1.3-0.1-2.3c0.2,0.1,0.8-1.7,1.2-2.6
							l0.1,0.1c-0.7-0.3-0.4-1.2-0.4-1.9c0.4,0.1,0.6,0.3,0.7,0.7l0.1-0.6c-0.2-0.2-0.3-0.4-0.3-0.8l0.5,0.3
							c0.1-0.8-0.3-1.8,0.3-2.8c-0.5-0.2-1.6,0.6-1.7-0.6c0.3,0,0.8,0.1,0.8,0.4c0-0.1-0.2-0.4,0-0.6l0.4,0.5
							c0.3-0.5-0.3-0.3-0.2-0.7c0.4,0.1,0.3-0.2,0.6-0.1c0,0.1-0.2,0.3-0.1,0.5c0.2-0.4,0.5-0.9,0.8-1c-0.2,0-0.5-0.1-0.5-0.4
							c0.1-0.8,0.5-0.2,0.8-0.6c-0.2-0.3,0.2-0.7-0.4-0.9c0.1-0.2,0.3-0.2,0.5-0.3c-0.2-0.5,0.3-2.1-0.4-1.7l-0.1,0.1c0,0,0,0,0-0.1
							c0,0,0,0,0,0l0,0c-0.3-1.5,0.9-2.9,1-4.4l0.2,0c-0.1-0.9,0.2-1.9,0-2.6c0.1-0.3,0.5-0.5,0.7-0.4c0-0.7-0.2-0.8,0.3-1.7
							c0.2,0.7,0.3-0.2,0.1,0.7c0.3-0.8,0.7-0.9,0.3-1.9c0.4,0.4,0.8-0.5,0.7-0.9l-0.5,0.5c0-0.5,0.1-0.8,0.3-1.2l0.6,0.3
							c1.1-1.6-0.7-3.4,0.9-4.4c-0.4-0.5-0.5,0.9-1,0.4c0.2-0.8,1.3-1.4,1.4-1.7c0.6-1-0.7-1.2-0.3-2.3c-0.3,0.1-0.9,0.1-1-0.8
							c0.2-0.8,1.2-0.8,1.3-0.2c0,0.2-0.1,0.3-0.2,0.2c0,0.3,0.1,0.6,0.4,0.4l-0.2-0.1c0.3-0.3,0.5-1.4,0.8-1.1
							c-0.1-0.6-0.3-0.3-0.5,0.1c0.5-0.9,0.3-1.6,0.8-2.6c-0.2,0.1-0.5,0.2-0.4,0.1c0.6-1.5-0.3-0.8-0.2-1.8
							c0.5-0.5,0.8,0.4,0.7-0.7c0.4-0.6,0.6,0,0.8,0.3c-0.3-1,0.7-1.7,0.8-2.3l0.1,0.5c-0.1-0.3,0-0.6,0.1-0.8l-0.5,0.2
							c0.1-0.3,0.2-0.5,0.4-0.5c-0.2-0.4-0.8,0.1-1.1-0.6c0.3-0.3,0-1.2,0.6-1.3c-0.5,1.2,0.6,0,0.5,1.1c0-0.2,0-0.5,0.2-0.7
							c0.1,0,0.1,0.1,0.1,0.2c0.8-1.1-0.6-0.7-0.3-1.9c0.3,0.2,0.7-0.2,0.7-0.4c-0.1,0.5-0.6,0.1-0.8-0.4c0.4-0.7,0-0.9,0.1-1.3
							l-0.2,0.4c-0.3-0.2-0.2-0.6-0.2-1.2c0.3,0,0.1,0.5,0.2,0.4c-0.5-0.7,0.9-1.2,0.7-2.2c0.3-0.3,0.7,0.1,0.9-0.2
							c-0.3-1,0.7-0.9,0.5-2c-0.5,0.2-0.4,0.3-0.7-0.5l0,1.7l-0.5-1.2c-0.1,0.5,0.1,1.1-0.1,1.4c-0.3-0.6-0.2-0.5-0.6-0.3
							c0.8-0.5-0.1-1.4,0.5-2.1l1.2,0.3c0.8-1.1-0.2-2.2,0.4-3.7L90,260c-0.4-0.3,0.1-1,0-1.5c0.4,0.1,0.6-0.2,0.9-0.3
							c-0.3,0,0.3-1.1-0.5-1.4l0.6-0.6c0.5-1.2-0.8-1.6-0.4-2.8c0.3,0.4,0.7,0,0.9,0.8c0.1-0.4,0.2-0.7,0-0.8
							c0.3-0.2-0.3-1.2,0.1-1.5c-0.1-0.2-0.5-0.3-0.4-0.8c0.1,0,0.2,0,0.2,0c-0.2,0-0.1-0.7-0.6-0.4c1.5-1,0.6-3.4,1.9-4.3
							c0-0.9,0.1-2,0.3-2.8c0.1,0.1,0.2,0,0.1,0.2c0.6-1-1-0.9-0.3-2c0.8-0.5,0.2,0.7,0.5,0.4c1.3,0.1,0.1-1.5,1-2.2l0,0.2
							c0.6-0.5-0.2-1.6,0.1-2.7c0,0,0.1,0.1,0.2,0c-0.5-0.8-0.5-2.2-0.4-3.3c0.4,0.4,0.2,0.5,0.7,0.4c0-0.5-0.8,0-0.8-1
							c0.3-0.2,0.7-0.8,1.3-0.8l-0.1,0.8c0.8-0.3,0.2-1.1,0.4-1.5l0.3,0.1c0.2-1.3-0.6-1.5-0.3-2.9l-0.3,0.1
							c-0.6-0.9,0.6-0.5,0.1-1.4l0.8-0.1c-0.1-0.5-0.4-1.9-0.4-2.8c0.5,0.6,0.6,1.7,0.8,2.5c0.1-0.5,0.3-1.7,0-2
							c0,0.2,0.2,0.5,0,0.7c-0.5-0.7-0.6-1.6-0.4-2.6c1.5,0.5,0.9-2.5,2.2-3c-0.2-1.9,0.9-3.4,1.3-5.5c-1.3,0.5,0.1-0.6-1.1-0.7
							c0-0.5,0.1-0.7,0.2-0.7l1-1.3c0.4-0.3,0.2,0.5,0.5,0.5c0.3-1,0.6-0.3,1.1-1c-0.5,0.1-0.5-0.5-0.3-1l-0.7,0.7
							c-0.3-1.6,1.3-1.1,0.9-2.6l0.3,0.5c-0.1-0.8,0.6-2.8-0.3-3.7c0.2-0.1,0.5-0.2,0.5,0.1c0.5-1.8-0.2-4.2,0.7-5.5l0.3,0.2
							c0-0.4-0.4-0.7-0.1-1.1c0.1,0,0.3,0.2,0.3,0c-0.1-0.2-0.3-1-0.1-1.4l0.3,0.4c0.7-1.7-0.3-2.8-0.2-4.4c0.9,0.2,1.4-1.1,1.7-1.8
							l0.1,0c0.5-2,0-3.6,0-5.6c1.2-1,1.2-3.9,2.1-5.7c-0.2,0.3-0.7-0.2-0.7-0.5c0.3-0.4-0.4-1.3,0.4-1.1l0,0.2
							c0.8-0.2,0.8-1.1,1-1.8l-1-0.3c1.9-1.6,0.4-5,2-5.7c-0.2-0.5-0.1-1.1-0.2-1.5l0.6,0.1c0.4-1.2,0.6-1.8,0.8-3.4l0.3,0.4
							c0.2-0.9-1.4-1.4-1.3-2.2l0.9-0.1c0.3-1.5,1.3-2.9,0.9-4.5c0.1,0,0.3,0.1,0.3,0.4c0.2-0.7,1.1-2.6-0.1-2.6
							c0.7,0.1,0.4-1.5,0.2-2.4l0.5,0.2c-0.6-0.8-0.7-0.9-0.7-1.9c0.1-0.2,0.5-0.1,0.3,0.2c0.4-0.7-0.4-0.7,0.1-1.6l0.3,0.4
							c0.2-0.8,0-0.7-0.3-1.3c-0.1-0.5,0.4-1.5,1-1.5c-0.3-0.2-0.6-0.7-0.4-1.1c0.2,0,0.3,0.2,0.3,0.3c0.6-1.2-0.2-2.1,0.5-2.9
							c0.2,0,0.3,0,0.4-0.1c-0.2,1-0.4,1.9-0.4,1.8c0.5,0.1,0.8-0.7,1.3,0.1c-0.2-0.7-0.8-2.1-0.4-2.8c0.1,0,0.1-0.1,0.2-0.1l0,0.1
							c0.1-0.2,0.1-0.4,0-0.5c0.1-0.2,0.2-0.4,0.3-0.6c0.4,0,0.4-0.9,0.5-1.3c-0.6-0.1-0.4-0.6-0.9-0.2c0.1-0.1,0.1,0.1,0,0.4
							c0,0.1,0,0.1,0,0.2c0,0,0,0,0,0c0,0.3-0.1,0.6-0.2,1c-0.2-0.4-0.4-0.8,0-1.2c-0.3-0.3-0.6-0.6-0.8-0.8c0.9-0.4,1.5-1.4,2-1.5
							c-0.1-1.3,0.4-3-0.5-4.1c-0.1-0.4,0.4-0.4,0.6-0.5c0.1,0.2,0,0.5,0.1,0.6c-0.1-0.8,0.3-2.2-0.4-2.5c0.5-0.8,0.6,0.6,0.7-0.6
							l0.2,0.2c1.7-2.2-1-4.4,1-6.8c-0.1,0.2-0.2,0.3-0.3,0.3c1.3-3,0.7-6.6,2.3-9.4c0.4-0.8-0.1-1-0.3-1.6l0.6-0.1l-0.5-1.1
							c-0.2-1.4,1.9-1.9,1.3-3.8l-0.4,0.1c0.2-0.6,0.1-1.9,0.6-1.7c-0.1-0.1-0.4-0.3-0.1-0.5l0.3,0l-0.2-1.6
							c0.4-1.1,1.2,0.4,1.6-1.2c0-0.6-0.6-1.9-0.8-1.7c-0.1,0.2-0.3,0.6-0.6,0.5l0-0.6c-0.9-0.3-1.7-0.9-2.7,0.3l0.4,1.1l-0.5,0.2
							l0.1-0.8c-0.5,0.4-0.2,0.7,0,1.1c-0.3,0-0.4,0.1-0.6,0.3l0.7,1.1c-0.4,0-0.6-0.6-0.9,0c0.3,0.5,0.9-0.3,1,0.5
							c-0.5,0.4-0.8,0.2-0.6,0.8c-0.3,0-0.4-0.1-0.4-0.3c0.2,0.5-0.1,1.3,0.3,1.6c-0.6,0.4-0.2,1.6-1,1.4c0.2,0.2,0.5,1,0.5,1.4
							c-0.9-1-0.4,1.6-1.5,1.2c0.8,0.8,0,2.2,0.3,3.4c-0.1-0.1-0.2-0.2-0.1-0.3c-0.2,0.6-0.5,0.7-0.8,1c0.8,0.2,0.7,1.2,1.1,1.8
							c-0.9,0.6-0.8-0.6-1.6-0.5c0.6,0.1,0.4,1.4,0.9,1.2c-0.6,0.5-0.3,0.4-1,0.6c0.9,0.3,0.1,0.5,0.6,1.1c-0.6,0.7-0.9,0-0.8,1
							C112.5,125.6,112.3,124.7,112.3,124.7z M109.8,145.9C109.7,145.9,109.7,145.9,109.8,145.9c0-0.2,0-0.3,0-0.4
							C109.8,145.6,109.8,145.7,109.8,145.9z M109.4,147.7c0.1-0.2,0.1-0.5,0.2-0.8c0.2,0,0.4,0.1,0.3,0.3
							C109.8,147.1,109.6,147.5,109.4,147.7z M114,144.8c0,0.3-0.1,0.4-0.2,0.4c0-0.1,0-0.3,0-0.5c0,0,0,0-0.1,0
							C113.8,144.6,113.9,144.7,114,144.8z"/>
						<path class="st1" d="M113.4,144.1c0,0,0-0.1,0-0.1c-0.1,0-0.1,0.1-0.2,0.1c0.1,0,0.1,0.1,0.2,0.1
							C113.3,144.2,113.3,144.2,113.4,144.1z"/>
						<path class="st1" d="M80.6,302.9L80.6,302.9C80.6,302.9,80.5,302.9,80.6,302.9C80.5,302.9,80.6,302.9,80.6,302.9z"/>
						<polygon class="st1" points="103.5,171.7 103.6,171.7 103.5,171.6 						"/>
						<path class="st1" d="M76.7,312.2c-0.1,0-0.1,0-0.2,0.1C76.6,312.3,76.7,312.2,76.7,312.2z"/>
						<path class="st1" d="M75.8,316.3l-0.3,0.6C75.6,316.6,75.7,316.5,75.8,316.3z"/>
						<path class="st1" d="M74.9,319.5c0.1,0.1,0.2,0.1,0.2,0.1c0,0,0,0,0,0L74.9,319.5z"/>
						<path class="st1" d="M84.5,268.4c0,0,0-0.1,0-0.1C84.4,267.9,84.4,268.1,84.5,268.4z"/>
						<path class="st1" d="M82.7,283.8c-0.1-0.2-0.1-0.4-0.2-0.5C82.4,283.5,82.4,283.7,82.7,283.8z"/>
						<path class="st1" d="M87.2,251.3C87.2,251.3,87.2,251.3,87.2,251.3c0,0,0-0.1,0-0.1L87.2,251.3z"/>
						<path class="st1" d="M82.7,282.5c-0.2,0.2-0.2,0.5-0.2,0.7C82.6,283,82.7,282.8,82.7,282.5z"/>
						<path class="st1" d="M71.8,333.3l-0.1,0.1c0,0,0.1,0,0.1,0L71.8,333.3z"/>
						<path class="st1" d="M71.8,333.5l0,0.2C71.9,333.6,71.9,333.6,71.8,333.5z"/>
						<path class="st1" d="M71.9,334.1l-0.1-0.4C71.9,333.8,71.8,334,71.9,334.1z"/>
						<path class="st1" d="M72.9,329.1l-0.2-0.1C72.8,329.1,72.8,329.1,72.9,329.1z"/>
						<path class="st1" d="M73.1,327.8c-0.1,0.3-0.6,0.7-0.5,1.1l0.2,0.1C72.5,328.8,73.4,328.2,73.1,327.8z"/>
						<path class="st1" d="M76.7,322.9l-0.4,1c0.3-0.1,0.6-0.3,0.5,0.2C77.8,322.9,76.3,324.3,76.7,322.9z"/>
						<path class="st1" d="M77.7,319.7c0,0.6,0.3,0.1,0.4,0.1C78,319.4,77.9,319.3,77.7,319.7z"/>
						<path class="st1" d="M82.5,295.4l0.5,0.2C83,295.1,82.8,295.5,82.5,295.4z"/>
						<polygon class="st1" points="80.9,290.3 80.5,290.6 80.9,290.9 						"/>
						<polygon class="st1" points="85,288.3 85,288.5 85,287.7 						"/>
						<path class="st1" d="M93,247.5l-0.6,0C92.4,247.9,93.1,248.1,93,247.5z"/>
						<path class="st1" d="M95.9,229.8c0.3-0.1,0.6-0.6,0.4-0.9C96.2,229.3,95.9,229.6,95.9,229.8z"/>
						<polygon class="st1" points="107.5,177.4 107.6,177.8 107.6,177.1 						"/>
					</g>
				</g>
			</g>
		</g>
	</g>
	<g>
		<g>
			<g>
				<g>
					<g>
						<path class="st1" d="M143.4,419.5c0.1,0.3,0.5,0.3,0.6-0.3l-0.5-0.6L143.4,419.5z"/>
						<path class="st1" d="M145.8,416.3c-0.1-0.7-0.4-1.6-1.1-1.4c0.4,0.8,0.1,0.9,0.6,1.8c-0.1,0.6-0.5,0.9-0.7,0.7
							c0.1,0.2-0.4,0.8-0.1,1.2c0.7-0.5,1.1-1.4,1-2.5C145.6,415.9,145.7,416.2,145.8,416.3z"/>
						<path class="st1" d="M164.9,364.2l-0.2,0.3C164.8,364.4,164.9,364.3,164.9,364.2z"/>
						<path class="st1" d="M176.5,331.8c-0.1,0.3,0,0.4,0,0.4C176.6,332,176.6,331.8,176.5,331.8z"/>
						<path class="st1" d="M179.1,326.5c-0.1,0.1-0.1,0.2-0.2,0.3C179.1,326.7,179.2,326.6,179.1,326.5z"/>
						<path class="st1" d="M164.9,364.2l0.5-0.8C165.2,363.2,165.1,363.8,164.9,364.2z"/>
						<path class="st1" d="M146.8,408.5c0,0.2,0,0.4,0,0.5C146.8,408.9,146.9,408.7,146.8,408.5
							C146.9,408.5,146.8,408.5,146.8,408.5z"/>
						<path class="st1" d="M160.5,378.7l-0.1,0.3c0,0.1,0.1,0.2,0.2,0.3L160.5,378.7z"/>
						<path class="st1" d="M156.8,389.7c0.1-0.2-0.4-0.5-0.6-0.7c0.2,0.2,0.2,0.4,0.2,0.7C156.5,389.7,156.6,389.7,156.8,389.7z"/>
						<path class="st1" d="M149.8,406.8l0,0.3C149.8,407,149.8,406.9,149.8,406.8z"/>
						<path class="st1" d="M163.3,370.8c0.1,0,0.2,0,0.2,0C163.5,370.8,163.4,370.8,163.3,370.8z"/>
						<path class="st1" d="M265.7,62C265.8,62.1,265.8,62.1,265.7,62C265.8,62,265.8,61.9,265.7,62z"/>
						<path class="st1" d="M272.8,50.2l0,0.2c0.1,0.1,0.2,0.1,0.3,0.1L272.8,50.2z"/>
						<path class="st1" d="M183.3,316.6C183.3,316.6,183.3,316.6,183.3,316.6C183.3,316.9,183.3,316.7,183.3,316.6z"/>
						<path class="st1" d="M215.2,223.2c-0.8,0.9,0-1.9-1.1-0.5C214.4,222.6,214.4,224.5,215.2,223.2z"/>
						<path class="st1" d="M147,408.2c0-0.2,0.1-0.3,0.2-0.5C147,408,147,408.1,147,408.2z"/>
						<path class="st1" d="M214.1,222.7C214.1,222.7,214.1,222.7,214.1,222.7l-0.1,0.1C214,222.8,214.1,222.8,214.1,222.7z"/>
						<path class="st1" d="M191.1,293.1c-0.1,0-0.2,0.1-0.3,0.2C190.8,293.2,190.9,293.2,191.1,293.1z"/>
						<path class="st1" d="M184.3,310.2l0.2-0.4C184.4,310,184.4,310.1,184.3,310.2z"/>
						<path class="st1" d="M193.5,283.8c0.1-0.2,0.2-0.3,0.3-0.6c0,0-0.1,0-0.1,0.1C193.7,283.4,193.7,283.5,193.5,283.8z"/>
						<path class="st1" d="M196.7,274.3c-0.1,0-0.1,0.1-0.2,0.1c0,0.1-0.1,0.2-0.1,0.3L196.7,274.3z"/>
						<path class="st1" d="M256.1,90.7c0.2-0.2,0.4-0.2,0.6-0.3C256.3,90.5,256.6,89.1,256.1,90.7z"/>
						<path class="st1" d="M147.1,408.6c-0.1-0.1-0.2-0.2-0.1-0.4c0,0.1-0.1,0.2-0.1,0.3C147,408.6,147,408.7,147.1,408.6z"/>
						<path class="st1" d="M189.4,281.9l0.6-1.5C189.8,280.9,189.6,281.4,189.4,281.9z"/>
						<path class="st1" d="M232.8,158.3l0.1-0.4C232.8,158.1,232.7,158.2,232.8,158.3z"/>
						<path class="st1" d="M191.5,276c0.3-0.2,0.5-0.4,0.7-0.7c0-0.1,0-0.2-0.1-0.2L191.5,276z"/>
						<path class="st1" d="M256.7,90.5C256.7,90.5,256.7,90.5,256.7,90.5C256.7,90.5,256.7,90.5,256.7,90.5z"/>
						<path class="st1" d="M258.9,80.2c-0.5,1.4,0.5,0.9,0.7,1.3c-0.4,1.8-0.8,0.6-1.3,1.1c-0.2,1.1,0.2,2.2-0.1,2.9
							c-0.1,0-0.2,0.2-0.3-0.1c0.2,1.3-1.1,3.3-0.9,4.9c-0.1,0.1-0.2,0.1-0.2,0.1c0.4-0.1,0.8,0,1,0.1c-0.2,0.6,0,1.3-0.5,1.4
							c0.1-0.4,0-0.5-0.1-0.7l0,0.7c-0.9,0.4,0.1-1-0.4-1.2c-0.2,1.4-0.2,3.1-0.8,4c-0.7,0,0.6-2.4-0.4-1.3l0.8-1.5
							c-1.4,0.8,0.4-0.9-1.1-0.2c-0.9,2-0.5,2.4-1.4,4.4c0.2,0.6,0.6,0,0.8,0.6c-0.4,3.1-2.4,1.7-2.3,4.1c0.2,0.7,1,1.2,0,2.6
							l-0.5-0.8c-0.8,1.9,0.7,1.5-0.5,3.4c-0.2-0.5,0.3-1.6,0.1-1.4c-1,1.1,0.1,1.1-0.3,2.1l-0.7,0c-0.6,2.1-1,4.6-1.7,7
							c-0.1-0.2-0.2-0.7-0.6-0.2c-0.7,3-2.2,6.2-3.6,8.9l0.2,1.3c-0.1,0.2-0.4,0.4-0.4,0.1c-0.6,1,0.3,0.2,0.4,0.8
							c-0.2,0.6-0.6,0.7-0.6,0.3c-0.2,2.1-0.9,5.9-2.2,7.7l0-0.5c-0.8,1.5,0.5,2.2-0.5,3.5l0-0.3c-1.4,3.4-2.3,7.4-4,9.7
							c0.6,0.8-1.5,3.3-0.5,3.9c-1.2,1.8-1.2,1.2-2.6,3.8c-0.3,0.7,0.3,1.4,0.1,2.3l-0.6-0.2l0.2,1.5L233,157l-0.1,0.9
							c0.2-0.3,0.5-0.6,0.7-0.5c-0.2,1.4-1.5,3.1-1.9,3.1l-0.6,3.4c-0.2-0.2-0.1-0.7-0.1-1.2c0,1.9-0.7,0.1-0.7,1.8
							c0.2-0.2,0.3,0.2,0.4,0.3c-0.6,0.7-1.2,2.4-1.5,3.8l-0.3-0.4c-0.9,2.3-1.5,5.1-2.5,7.7c0.5-0.9,1.1-0.4,0.9,0.4l-0.7,0.1
							c0.2,0.6,0.5-0.7,0.6,0.5c-0.4,1-0.9,0.4-0.9-0.2l-0.2,1.3c-0.2,0-0.2-0.3-0.4-0.5c0.2,0.6-1.3,1.9-0.9,2.8l-0.2,0
							c-0.9,2.7-1.1,3.9-1.8,6.1c0.5,0.2,0.1,1,0.3,1.8c-0.7,1.5-1.7,3.1-2.4,5.1c-0.2,1.4,0.3,0.5,0.4,1.3
							c-0.5-0.1-1.1,1.9-1.1,0.7c-0.7,2.3-0.9,3-1.5,6c0.3-0.2,0.5-0.6,0.6-0.3c-0.1,0.6-0.6,1.1-0.8,1l0-0.2c-0.4,3.5-4,7-3.9,10
							l0-0.2l-0.4,2.9c-0.5,1.2-0.1-0.9-0.7-0.1c-0.2,3.2-1.7,4.5-2,7.1c-2.1,1.4-2.2,6.6-4,8.8l0.4,0c0.1,0.8-0.5,0.7-0.7,1.2
							c0.3,0,0.5-0.6,0.6-0.1c-1.5,5.6-4.4,11.1-6.6,16.6c-0.8,2,1.3,1.8-0.4,4.1l-0.4-1c-0.7,4.4-3,8.5-3.7,12.7
							c-0.1-0.3-0.2-0.4-0.1-0.8c-0.7,0.7-1.1,3.2-0.8,3.3c-0.3,0.6-0.4,0-0.7,0.4c-0.6,0.8-0.2,2.4-0.8,2.7c-0.1,0.1-0.1-0.3,0-0.5
							c0,0.6-1,2.6-0.2,2.2c-0.8,1.4-0.8,3-1.5,4.1c0.3,1-1.2,2.5-0.4,3c-0.8-0.4-1.6,2.4-1.5,3.5c-0.1-0.4-0.6,0.7-0.8,0.2
							c-0.4,1.1-0.6,2.2-0.1,2.1c-1.7,1.7-0.6,4.4-2.3,5c-0.7,3.4-1.4,6.5-2.2,9.5c-0.8-0.4,1-3.3,0.1-3.5c-0.6,2.9-0.4,4.8-1.6,7.5
							c-0.4,0.7-0.2-0.5-0.3-0.8c-0.6,2.9-1.9,5.3-2.3,8c-0.1,0-0.1-0.3,0-0.6c-0.1,0.5-0.5,1.1-0.1,1.2l0.1-0.5
							c0.8-0.6,0.5,2.3,0.8,2.5c-0.8-1.2-1.1,2.3-2.1,0.5c0,0.3,0,0.8,0.3,0.8c-0.2,0.5-0.4,0.5-0.6,0c-0.4,1.8,0.2,1.3-0.3,2.9
							c-0.2-0.1-0.1-0.4-0.3-0.7c0.1,0.9,0.2,1.9-0.4,3.1c-0.1-0.1-0.3,0-0.1-0.4c-0.7,2.3-0.4,4.3-1.6,6.6c-0.6-1-0.6,0.8-1.3,0.7
							l-0.3,1.4l0.5-0.4c-0.4,1.2-0.3,2.4-0.9,3.3l0-1l-0.6,2.3l0.7-1.2c-0.1,1.3,0.9,0.2,0.2,1.7c0-0.3-0.4,1.2-1,1.7c0,0,0,0,0,0
							c0,0.7,0,1.4-0.4,2.2c-0.3,0.1-0.7-0.5-0.9-0.4c0.4,0.8-0.8,2.8-0.4,3.8c-0.1-0.3-0.4-0.4-0.5-0.4l0.3,0.7
							c-0.3,0.5-0.4,0.6-0.7,0.4c-0.7,1.6,1.1-0.2,0,1.6c0-0.2-0.1-0.1,0-0.5c-0.9,1.9-1,3.9-1.9,5.6c-0.9,0.3,0.4-1.6-0.4-1.2
							c-0.8,2.7-1,5.7-2.1,8.2l0.2-0.4c0.9,0.7-1.1,1.7-1.1,3.2c0-0.3-0.4-0.6-0.3-0.5c-0.8,1.7-1,3.6-1.6,6.4l-0.1-0.4
							c-0.6,0.9-1.1,2.6-1.6,3.7c0.1,0.4-0.1,1,0.4,0.8c-2.6,2.9-1.5,6.8-3.7,9.3c0.1-0.4,0.1-0.9,0-0.7l-0.7,2.6
							c0.5-0.1,0.4-0.2,0.9-0.7c0.1,0.4,0.1,1.2-0.1,1.8c0.1-1.3-0.7-0.2-1.1,0.2c0.2,0,0.3,0.2,0.4,0.2c-1.2,1.1,0.8,0.5-0.4,2.2
							l-0.2-0.2c-0.1,0.7,0,1.5-0.4,2.2c-0.6,0.1,0-0.8-0.4-1c-0.3,1,0.2,2.4-0.6,3.1c0-0.5,0.2-1.1,0.2-1.6c-0.9,0.8-0.8,1-1.2,1.7
							l0-0.1l-0.9,1.7l0.3-0.4c0.9,1.8-0.7,2.7-0.4,4.8c-0.2-2-0.4-0.4-0.9-0.8c-0.3,0.4-0.7,1-0.8,0.8c0.2,1-0.8,1.3-0.6,2.7
							c-0.2,0-0.3,0.9-0.7,0.5c-0.2,1.1,0.4-0.1,0.6,0c0.1,1.9-2.1,3.6-2.1,6.3c-0.4,2.2,0.1,2.8-0.2,4.8c-0.5,0.5-0.5-0.8-0.5-0.8
							c-0.6,0.9-0.9,1.7-1,2.8c-0.1-0.3-0.3-0.1-0.6,0.1c-0.2,0.8,0.5,0.8-0.1,1.7c-0.1-0.2-0.4-0.6-0.5-1c-0.2,1-0.1,2-0.3,3
							c-0.4,0.1-0.3-0.7-0.4-1.2c-0.2,1.1-0.7,2.9-0.3,3.4l0.4-0.6c-0.1,0.4-0.5,0.1-0.5-0.3c-0.1-1.1,0.6-1.3,0.8-1.3l-0.1,0.7
							c1.3-0.3,0.8-2.8,1.3-4.2l0.6,0.8l-0.2-1.6c0.3-0.2,0.8-0.3,0.7,0.4c0.7-0.9,0-1,0.7-1.7c0.1-0.1,0.1,0,0.1,0.1l0.1-1
							c0.1,0.2,0.6,0,0.3,0.6c1.1-1.6,0.4-3,1.2-3.4l0,0.2c0.6-2.5-0.5-0.4-0.6-2.5l1.8-0.7l-0.5-0.4c0.1-0.2,0.3-0.7,0.5-0.5
							c-0.1-1.1-0.3,0.1-0.5-0.6c0.9-1,0.9-3.4,1.9-3.3c-0.3-0.6-0.7,1-0.6-0.4c1.1,0,0.3-1.5,1.2-2.5c0.4,0.5-0.2,1.4,0.6,0.5
							c-0.6-1,0.9-2.1,1.1-3c-0.7-0.3,0.4-2.1,0.7-3.7c0.2,0.2,1.4-2.8,2.1-4.1l0.1,0.1c-0.6-0.5,0-1.9,0.3-3.1
							c0.4,0.2,0.5,0.4,0.5,1.1l0.3-1c-0.1-0.3-0.1-0.7,0-1.4l0.4,0.4c0.4-1.4,0.3-2.9,1.3-4.5c-0.5-0.3-1.8,0.9-1.5-1
							c0.3,0,0.8,0.1,0.7,0.6c0-0.2,0-0.6,0.2-0.9l0.2,0.9c0.5-0.7-0.2-0.5,0-1.2c0.4,0.1,0.4-0.4,0.7-0.2c0,0.2-0.3,0.5-0.3,0.8
							c0.3-0.7,0.8-1.5,1.2-1.7c-0.2,0-0.5-0.2-0.4-0.7c0.4-1.4,0.6-0.3,1.1-1c-0.1-0.4,0.4-1.2-0.1-1.4c0.1-0.4,0.4-0.4,0.6-0.5
							c0-0.8,1.1-3.3,0.2-2.7l-0.1,0.2c0,0,0-0.1,0-0.1c0,0,0,0,0,0l0,0c0.2-2.5,2-4.6,2.5-7l0.2,0.1c0.3-1.4,0.9-3.1,0.8-4.2
							c0.1-0.4,0.7-0.8,0.8-0.6c0.2-1.1,0-1.3,0.9-2.7c0,1.2,0.4-0.3-0.1,1.1c0.6-1.3,1-1.5,1-3.1c0.3,0.7,1-0.8,1-1.5l-0.7,0.8
							c0.2-0.7,0.4-1.4,0.7-2l0.5,0.6c1.7-2.5,0.4-5.4,2.4-7.1c-0.2-0.9-0.8,1.4-1.1,0.6c0.5-1.2,1.9-2.2,2-2.6
							c0.9-1.6-0.4-1.9,0.5-3.7c-0.3,0.2-1,0.2-0.7-1.3c0.5-1.2,1.5-1.2,1.4-0.4c-0.1,0.3-0.2,0.4-0.3,0.4c-0.1,0.4-0.1,1,0.3,0.6
							l-0.2-0.2c0.4-0.5,1-2.3,1.3-1.8c0.1-1-0.2-0.5-0.6,0.1c0.9-1.5,0.9-2.5,1.7-4.1c-0.2,0.2-0.6,0.4-0.5,0.1
							c1.1-2.4-0.1-1.2,0.4-2.9c0.7-0.8,0.7,0.6,1-1.1c0.6-0.9,0.7,0,0.7,0.5c0.1-1.7,1.3-2.7,1.6-3.6l-0.1,0.9
							c0.1-0.5,0.2-0.9,0.3-1.3l-0.6,0.3c0.2-0.4,0.4-0.8,0.6-0.8c-0.1-0.6-0.9,0.1-0.9-1c0.4-0.5,0.4-2,1.1-2
							c-0.9,1.9,0.7,0,0.2,1.7c0-0.3,0.2-0.7,0.4-1.2c0.1,0,0.1,0.1,0.1,0.2c1.2-1.7-0.4-1.1,0.3-3.1c0.2,0.4,0.8-0.2,0.8-0.6
							c-0.3,0.8-0.7,0.2-0.7-0.6c0.7-1.2,0.3-1.4,0.5-2.1l-0.4,0.7c-0.2-0.4,0-1,0.2-1.9c0.3,0-0.1,0.9,0.1,0.6
							c-0.3-1.2,1.4-2,1.4-3.5c0.4-0.5,0.7,0.2,1-0.3c0.1-1.7,1-1.5,1.2-3.2c-0.6,0.3-0.5,0.4-0.6-0.9l-0.6,2.7l-0.1-1.9
							c-0.3,0.8-0.3,1.8-0.5,2.2c-0.1-0.9,0-0.8-0.5-0.6c1.1-0.8,0.3-2.3,1.2-3.4l1.1,0.4c1.1-1.7,0.6-3.5,1.7-5.9l-0.5,0.7
							c-0.3-0.5,0.5-1.5,0.6-2.4c0.3,0.2,0.7-0.2,1-0.5c-0.3-0.1,0.6-1.8,0-2.3l0.9-0.9c0.9-1.9-0.3-2.6,0.5-4.5
							c0.2,0.7,0.8-0.1,0.6,1.3c0.2-0.6,0.5-1.2,0.2-1.3c0.4-0.3,0.1-1.9,0.7-2.4c-0.1-0.3-0.4-0.5-0.2-1.2c0.1-0.1,0.2,0.1,0.2,0.1
							c-0.2-0.1,0.1-1.2-0.5-0.7c1.8-1.5,1.8-5.5,3.4-6.8c0.4-1.4,0.8-3.1,1.2-4.4c0.1,0.1,0.2,0.1,0.1,0.3c0.9-1.6-0.7-1.4,0.4-3.3
							c1-0.8,0,1.2,0.4,0.6c1.3,0.2,0.7-2.4,1.8-3.5l0,0.3c0.8-0.9,0.4-2.6,1.1-4.3c0,0,0.1,0.1,0.2,0.1c-0.2-1.3,0.3-3.6,0.7-5.2
							c0.3,0.7,0,0.8,0.6,0.7c0.2-0.7-0.9-0.1-0.5-1.5c0.4-0.4,1-1.3,1.6-1.3l-0.4,1.4c0.9-0.5,0.6-1.7,0.9-2.4l0.3,0.2
							c0.6-2.1-0.1-2.4,0.7-4.6l-0.3,0.2c-0.3-1.5,0.8-0.9,0.6-2.3l0.9-0.1c0.1-0.9,0.2-3,0.6-4.5c0.3,1,0,2.8-0.1,3.9
							c0.3-0.8,0.9-2.7,0.7-3.2c0,0.3,0,0.8-0.2,1.1c-0.3-1.2-0.1-2.6,0.5-4.1c1.3,0.8,1.8-4,3.3-4.7c0.4-3,2.1-5.5,3.2-8.7
							c-1.5,0.8,0.3-1-0.9-1.2c0.2-0.8,0.3-1.1,0.4-1.1l1.5-2.1c0.5-0.4,0,0.8,0.3,0.8c0.7-1.6,0.7-0.5,1.4-1.5
							c-0.5,0.1-0.4-0.8,0.1-1.7l-1,1.1c0.2-2.5,1.7-1.7,1.9-4.2l0.1,0.9c0.2-1.3,1.5-4.4,1-5.9c0.2-0.2,0.6-0.3,0.5,0.2
							c1.1-2.8,1.2-6.7,2.6-8.7l0.2,0.3c0.1-0.6-0.2-1.1,0.3-1.7c0.1,0.1,0.2,0.3,0.3,0.1c0-0.3,0-1.6,0.4-2.2l0.1,0.7
							c1.3-2.7,0.7-4.6,1.3-7c0.8,0.3,1.9-1.8,2.4-2.9l0.1,0.1c1.2-3.2,1.2-5.8,1.9-8.9c1.6-1.6,2.6-6.2,4.1-9
							c-0.3,0.4-0.6-0.3-0.5-0.9c0.4-0.6,0.1-2.1,0.8-1.8l-0.1,0.2c0.9-0.3,1.2-1.8,1.6-2.9l-0.9-0.5c2.5-2.5,2.2-7.9,4-9.1
							c0-0.8,0.3-1.7,0.3-2.5l0.5,0.2c0.8-1.9,1.2-2.9,1.9-5.4l0.2,0.6c0.5-1.4-0.9-2.3-0.5-3.6l0.9-0.1c0.8-2.4,2.4-4.6,2.5-7.2
							c0.1,0.1,0.3,0.2,0.2,0.6c0.4-1.1,2.1-4.2,0.8-4.2c0.7,0.2,0.9-2.5,1.1-3.9l0.5,0.4c-0.3-1.3-0.5-1.4-0.1-3
							c0.2-0.3,0.5-0.2,0.2,0.3c0.7-1.1-0.2-1.1,0.6-2.5l0.1,0.7c0.5-1.2,0.3-1.2,0.1-2c0.1-0.9,1-2.3,1.5-2.3
							c-0.2-0.3-0.4-1.1,0-1.8c0.2,0,0.2,0.3,0.2,0.4c1.1-2,0.5-3.3,1.5-4.6c0.2,0,0.3,0,0.4-0.1c-0.6,1.6-1.1,3-1.1,2.8
							c0.5,0.2,1-1.1,1.3,0.2c0-1.2-0.2-3.3,0.5-4.5c0.1,0,0.1-0.1,0.2-0.1l0,0.2c0.2-0.3,0.2-0.6,0.2-0.8c0.2-0.4,0.4-0.6,0.5-1
							c0.5,0,0.7-1.5,1-2.1c-0.6-0.1-0.2-1-0.9-0.3c0.1-0.1,0,0.1-0.1,0.6c0,0.1-0.1,0.2,0,0.3c0,0,0,0,0-0.1
							c-0.1,0.4-0.3,1-0.5,1.7c-0.1-0.6-0.1-1.2,0.4-1.9c-0.2-0.5-0.4-1-0.5-1.2c1.1-0.7,2.1-2.3,2.6-2.4c0.4-2.1,1.5-4.9,0.9-6.5
							c0.1-0.6,0.5-0.6,0.7-0.7c0,0.4-0.2,0.8-0.1,1c0.1-1.2,1.1-3.5,0.5-4c0.8-1.3,0.4,1,0.9-1l0.1,0.3c2.5-3.6,0.4-7,3.4-10.9
							c-0.2,0.3-0.3,0.4-0.4,0.4c2.4-4.8,3-10.5,5.7-15c0.7-1.3,0.3-1.6,0.2-2.6l0.7-0.1l-0.2-1.7c0.2-2.2,2.6-3.1,2.6-6l-0.5,0.2
							c0.4-0.9,0.8-3.1,1.2-2.7c0-0.1-0.3-0.4,0-0.7l0.3,0.1l0.3-2.5c0.8-1.7,1.1,0.7,2.1-1.9c0.2-1,0.1-3.1-0.2-2.8
							c-0.2,0.4-0.5,0.9-0.8,0.9l0.2-0.9c-0.8-0.5-1.5-1.5-2.9,0.5l0,1.7l-0.6,0.3l0.4-1.3c-0.7,0.6-0.5,1.2-0.4,1.8
							c-0.3,0-0.5,0.2-0.7,0.5l0.3,1.8c-0.4,0.1-0.5-0.9-1,0c0.1,0.8,1-0.4,0.9,0.8c-0.7,0.6-0.9,0.3-0.9,1.2
							c-0.3,0-0.4-0.2-0.3-0.6c0,0.9-0.6,2-0.2,2.6c-0.8,0.6-0.8,2.6-1.6,2.2c0.1,0.3,0.2,1.6,0,2.3c-0.6-1.6-1,2.6-1.9,1.9
							c0.6,1.3-0.8,3.5-0.9,5.4c0-0.1-0.1-0.4,0-0.5c-0.4,0.9-0.8,1.1-1.1,1.6c0.7,0.4,0.4,1.9,0.5,2.8c-1.1,0.9-0.6-1-1.4-0.9
							c0.6,0.1-0.1,2.2,0.5,2c-0.7,0.7-0.5,0.7-1.2,0.9c0.9,0.5-0.1,0.9,0.2,1.8c-0.9,1.1-1,0-1.2,1.5
							C258.8,81.5,258.9,80.2,258.9,80.2z M248.9,114C248.9,114,248.9,114,248.9,114c0.1-0.3,0.2-0.5,0.2-0.7
							C249.1,113.5,249,113.7,248.9,114z M248,116.8c0.1-0.3,0.3-0.8,0.4-1.2c0.2,0,0.4,0.1,0.3,0.4
							C248.6,115.8,248.3,116.5,248,116.8z M253.7,112.2c-0.1,0.5-0.2,0.6-0.4,0.6c0.1-0.2,0.1-0.5,0.2-0.8c0,0,0-0.1,0-0.1
							C253.6,112,253.7,112.1,253.7,112.2z"/>
						<path class="st1" d="M253.3,111.1c0-0.1,0-0.1,0-0.2c-0.1,0.1-0.1,0.1-0.2,0.2c0,0.1,0.1,0.1,0.1,0.2
							C253.2,111.3,253.3,111.2,253.3,111.1z"/>
						<path class="st1" d="M164.7,364.5L164.7,364.5C164.7,364.5,164.7,364.6,164.7,364.5C164.7,364.5,164.7,364.5,164.7,364.5z"/>
						<polygon class="st1" points="233.6,155.1 233.7,155.2 233.7,154.9 						"/>
						<path class="st1" d="M157.6,379.3c-0.1,0-0.1,0.1-0.2,0.2C157.4,379.5,157.5,379.4,157.6,379.3z"/>
						<path class="st1" d="M155.1,385.9l-0.5,0.9C154.9,386.4,155,386.1,155.1,385.9z"/>
						<path class="st1" d="M153.1,391c0.1,0.1,0.1,0.1,0.2,0.2c0,0,0,0,0,0L153.1,391z"/>
						<path class="st1" d="M180.6,309.4c0-0.1,0-0.1,0-0.2C180.7,308.6,180.7,309,180.6,309.4z"/>
						<path class="st1" d="M173.5,334c0-0.3,0-0.6,0-0.9C173.3,333.6,173.2,333.9,173.5,334z"/>
						<path class="st1" d="M189.4,282.1C189.4,282.1,189.4,282.1,189.4,282.1c0-0.1,0-0.1,0.1-0.2L189.4,282.1z"/>
						<path class="st1" d="M173.9,332c-0.3,0.4-0.4,0.8-0.4,1.1C173.7,332.8,173.9,332.4,173.9,332z"/>
						<path class="st1" d="M145.2,413.1l-0.1,0.2c0,0,0.1,0,0.1,0.1L145.2,413.1z"/>
						<path class="st1" d="M145.1,413.3l0,0.3C145.2,413.5,145.2,413.4,145.1,413.3z"/>
						<path class="st1" d="M145,414.3l0.1-0.6C145,413.8,144.9,414.1,145,414.3z"/>
						<path class="st1" d="M147.8,406.4l-0.2-0.1C147.6,406.3,147.7,406.3,147.8,406.4z"/>
						<path class="st1" d="M148.4,404.3c-0.2,0.5-0.8,1.1-1,1.8l0.1,0.1C147.4,405.8,148.6,404.9,148.4,404.3z"/>
						<path class="st1" d="M153.8,396.5l-0.8,1.7c0.3-0.2,0.7-0.5,0.5,0.3C154.9,396.5,152.9,398.7,153.8,396.5z"/>
						<path class="st1" d="M155.9,391.3c-0.2,1,0.3,0.1,0.4,0.2C156.3,390.8,156.3,390.6,155.9,391.3z"/>
						<path class="st1" d="M169.3,352.6l0.5,0.3C169.9,352.1,169.6,352.8,169.3,352.6z"/>
						<polygon class="st1" points="169.4,344.3 168.8,344.9 169.2,345.4 						"/>
						<polygon class="st1" points="174.3,341.2 174.3,341.5 174.5,340.3 						"/>
						<path class="st1" d="M196.6,276.2l-0.7,0C195.9,276.7,196.5,277,196.6,276.2z"/>
						<path class="st1" d="M205.7,247.9c0.4-0.2,0.9-0.9,0.7-1.5C206.2,247,205.8,247.6,205.7,247.9z"/>
						<polygon class="st1" points="235.8,164.2 235.8,164.8 236,163.7 						"/>
					</g>
				</g>
			</g>
		</g>
	</g>
	<g>
		<g>
			<g>
				<g>
					<g>
						<path class="st1" d="M69.1,338.9c0,0.3,0.4,0.4,0.6-0.1l-0.3-0.7L69.1,338.9z"/>
						<path class="st1" d="M72.1,336.8c0.1-0.7,0-1.6-0.7-1.6c0.2,0.9-0.1,0.8,0.1,1.8c-0.2,0.5-0.7,0.6-0.8,0.4
							c0,0.2-0.6,0.6-0.4,1c0.8-0.3,1.3-0.9,1.5-1.9C72,336.4,72,336.7,72.1,336.8z"/>
						<path class="st1" d="M101.7,296.3l-0.2,0.2C101.5,296.5,101.6,296.4,101.7,296.3z"/>
						<path class="st1" d="M119.7,271.1c-0.1,0.2-0.1,0.3-0.1,0.4C119.8,271.2,119.8,271.1,119.7,271.1z"/>
						<path class="st1" d="M123.4,267.1c-0.1,0.1-0.1,0.2-0.2,0.2C123.3,267.3,123.4,267.2,123.4,267.1z"/>
						<path class="st1" d="M101.7,296.3l0.6-0.6C102.2,295.6,101.9,296,101.7,296.3z"/>
						<path class="st1" d="M74.8,330.2c-0.1,0.2-0.1,0.3-0.1,0.5C74.7,330.5,74.8,330.4,74.8,330.2
							C74.8,330.2,74.8,330.2,74.8,330.2z"/>
						<path class="st1" d="M94.3,307.8l-0.1,0.2c0,0.1,0.1,0.2,0.1,0.3L94.3,307.8z"/>
						<path class="st1" d="M88.3,316.5c0.2-0.2-0.3-0.6-0.4-0.8c0.1,0.2,0.1,0.4,0,0.6C88,316.4,88.2,316.5,88.3,316.5z"/>
						<path class="st1" d="M78,329.6l-0.1,0.3C77.9,329.8,78,329.7,78,329.6z"/>
						<path class="st1" d="M98.7,301.7c0.1,0,0.2,0,0.2,0C98.8,301.7,98.8,301.7,98.7,301.7z"/>
						<path class="st1" d="M263.5,58.6C263.5,58.6,263.6,58.7,263.5,58.6C263.6,58.6,263.5,58.6,263.5,58.6z"/>
						<path class="st1" d="M272.8,50.2l-0.1,0.2c0.1,0.1,0.2,0.2,0.2,0.2L272.8,50.2z"/>
						<path class="st1" d="M129.5,259.6C129.5,259.6,129.5,259.6,129.5,259.6C129.4,259.9,129.5,259.8,129.5,259.6z"/>
						<path class="st1" d="M180.2,186.4c-1,0.5,0.4-1.7-0.9-0.8C179.5,185.6,179.2,187.3,180.2,186.4z"/>
						<path class="st1" d="M75,330c0.1-0.1,0.2-0.2,0.2-0.4C75.1,329.8,75,329.9,75,330z"/>
						<path class="st1" d="M179.3,185.6C179.3,185.6,179.3,185.6,179.3,185.6l-0.1,0.1C179.2,185.7,179.2,185.7,179.3,185.6z"/>
						<path class="st1" d="M142.1,241.1c-0.1,0-0.2,0-0.3,0C141.8,241.2,141.9,241.2,142.1,241.1z"/>
						<path class="st1" d="M131.9,254.3l0.3-0.3C132,254.1,131.9,254.2,131.9,254.3z"/>
						<path class="st1" d="M146.4,233.6c0.2-0.2,0.3-0.2,0.4-0.5c0,0-0.1,0-0.1,0C146.6,233.3,146.6,233.4,146.4,233.6z"/>
						<path class="st1" d="M151.5,226.2c-0.1,0-0.1,0-0.2,0.1c0,0.1-0.1,0.2-0.1,0.3L151.5,226.2z"/>
						<path class="st1" d="M248.1,81.2c0.2-0.1,0.5-0.1,0.7-0.1C248.3,81,248.9,79.8,248.1,81.2z"/>
						<path class="st1" d="M75,330.4c-0.1-0.1-0.1-0.2,0-0.4c-0.1,0.1-0.1,0.2-0.1,0.3C74.9,330.3,74.9,330.4,75,330.4z"/>
						<path class="st1" d="M142.9,230.7l0.9-1.1C143.5,229.9,143.2,230.3,142.9,230.7z"/>
						<path class="st1" d="M211.1,134.1l0.1-0.3C211.2,133.9,211.1,134,211.1,134.1z"/>
						<path class="st1" d="M146.2,226.1c0.3-0.1,0.6-0.3,0.8-0.4c0-0.1,0-0.1,0-0.2L146.2,226.1z"/>
						<path class="st1" d="M248.7,81.1C248.7,81.1,248.7,81.1,248.7,81.1C248.7,81.1,248.7,81.1,248.7,81.1z"/>
						<path class="st1" d="M253,72.6c-0.8,1.1,0.2,0.9,0.4,1.4c-0.8,1.5-0.9,0.3-1.5,0.5c-0.4,0.9-0.3,2-0.8,2.6
							c-0.1,0-0.3,0.1-0.3-0.2c-0.1,1.2-1.8,2.6-1.9,4.1c-0.1,0-0.2,0-0.2,0c0.4,0,0.7,0.2,0.9,0.4c-0.3,0.5-0.3,1.2-0.8,1.1
							c0.2-0.3,0.1-0.4,0.1-0.7l-0.2,0.6c-0.9,0.1,0.3-0.9-0.1-1.1c-0.5,1.2-0.9,2.7-1.6,3.3c-0.7-0.2,1.1-2-0.1-1.3l1.1-1.1
							c-1.5,0.3,0.6-0.7-1-0.5c-1.3,1.5-1,2-2.2,3.5c0.1,0.6,0.5,0.2,0.6,0.8c-1,2.7-2.6,0.8-3.1,3c0.1,0.7,0.7,1.3-0.5,2.3
							l-0.3-0.8c-1.1,1.5,0.3,1.5-1.3,2.8c0-0.5,0.6-1.4,0.4-1.2c-1.2,0.7-0.2,1-0.7,1.8l-0.7-0.2c-1.1,1.7-1.9,3.8-3.1,5.7
							c-0.1-0.2-0.1-0.7-0.5-0.3c-1.3,2.5-3.5,4.9-5.4,6.8l-0.1,1.2c-0.1,0.2-0.5,0.2-0.4-0.1c-0.8,0.7,0.3,0.3,0.2,0.8
							c-0.3,0.5-0.7,0.5-0.7,0c-0.7,1.8-2.2,5-3.8,6.2l0.1-0.4c-1.1,1.1,0,2.1-1.3,2.9l0.1-0.3c-2.1,2.6-3.8,5.9-5.9,7.4
							c0.4,0.9-2.2,2.5-1.3,3.3c-1.6,1.2-1.4,0.6-3.3,2.6c-0.5,0.6,0,1.3-0.4,2.1l-0.5-0.3l-0.2,1.3l-1,0.1l-0.3,0.8
							c0.2-0.2,0.6-0.4,0.7-0.3c-0.5,1.2-2.2,2.3-2.4,2.2l-1.3,2.8c-0.2-0.2,0.1-0.7,0.2-1.1c-0.4,1.7-0.7-0.1-1.1,1.4
							c0.2-0.1,0.2,0.3,0.3,0.4c-0.7,0.4-1.7,1.8-2.3,2.9l-0.2-0.4c-1.4,1.8-2.6,4-4,6.1c0.7-0.6,1.2,0,0.8,0.6l-0.7-0.1
							c0.1,0.6,0.6-0.5,0.5,0.6c-0.6,0.7-1,0.1-0.8-0.5l-0.5,1.1c-0.2-0.1-0.1-0.3-0.3-0.5c0.1,0.6-1.7,1.3-1.5,2.2l-0.2-0.1
							c-1.5,2.1-1.9,3.1-3.1,4.9c0.4,0.4-0.1,0.9-0.1,1.7c-1,1.1-2.3,2.3-3.4,3.8c-0.5,1.2,0.2,0.6,0.1,1.2
							c-0.5-0.2-1.5,1.3-1.2,0.3c-1.2,1.8-1.5,2.4-2.8,4.9c0.3-0.1,0.6-0.4,0.7-0.1c-0.2,0.5-0.8,0.8-1,0.6l0-0.1
							c-1.2,3-5.3,5-5.9,7.7l0-0.1l-1,2.4c-0.8,0.9,0.1-0.8-0.7-0.3c-0.9,2.8-2.6,3.5-3.5,5.7c-2.3,0.6-3.5,5.2-5.7,6.6l0.4,0.1
							c-0.1,0.7-0.6,0.5-0.9,0.8c0.3,0.1,0.6-0.4,0.6,0.1c-2.6,4.5-6.6,8.5-9.9,12.8c-1.2,1.6,0.9,2-1.2,3.5l-0.1-1
							c-1.6,3.7-4.7,6.6-6.3,10.2c0-0.3-0.2-0.4,0.1-0.7c-0.9,0.4-1.8,2.5-1.4,2.7c-0.4,0.5-0.4-0.1-0.7,0.1c-0.7,0.5-0.7,2-1.3,2.1
							c-0.1,0,0-0.3,0.1-0.4c-0.1,0.6-1.5,2-0.7,1.9c-1,1-1.4,2.4-2.3,3.2c0.1,1-1.7,1.9-1.1,2.6c-0.7-0.6-2.1,1.7-2.2,2.7
							c0-0.4-0.7,0.5-0.8,0c-0.6,0.9-1,1.8-0.5,1.9c-2,1-1.5,3.7-3.3,3.8c-1.4,2.8-2.8,5.4-4.2,7.8c-0.7-0.6,1.7-2.6,0.9-3
							c-1.2,2.4-1.5,4.1-3.2,6.1c-0.5,0.5-0.1-0.5-0.1-0.8c-1.2,2.4-3,4.2-4,6.4c-0.1-0.1,0-0.3,0.1-0.6c-0.2,0.4-0.7,0.8-0.4,1
							l0.2-0.4c0.9-0.3,0,2.2,0.2,2.5c-0.5-1.3-1.6,1.7-2.1-0.1c-0.1,0.3-0.2,0.7,0.1,0.8c-0.3,0.3-0.5,0.4-0.5-0.2
							c-0.8,1.5-0.1,1.3-1,2.5c-0.2-0.1,0-0.4-0.1-0.7c-0.1,0.8-0.2,1.7-1.1,2.7c-0.1-0.1-0.3-0.1,0-0.4c-1.2,1.8-1.3,3.7-3,5.4
							c-0.3-1.1-0.7,0.5-1.4,0.2l-0.6,1.2l0.6-0.2c-0.7,0.9-0.8,2.1-1.5,2.7l0.2-0.9l-1.1,1.8l0.9-0.8c-0.3,1.2,0.8,0.4-0.2,1.6
							c0.1-0.3-0.7,0.9-1.4,1.2c0,0,0,0,0,0c-0.1,0.6-0.3,1.2-0.9,1.8c-0.3,0-0.6-0.6-0.8-0.6c0.2,0.8-1.4,2.3-1.2,3.2
							c0-0.3-0.3-0.5-0.4-0.5l0.1,0.7c-0.4,0.3-0.5,0.4-0.7,0.1c-1,1.2,1.1,0.1-0.3,1.4c0.1-0.1-0.1-0.1,0.1-0.4
							c-1.3,1.4-1.8,3.2-3,4.4c-0.9,0,0.7-1.3-0.1-1.2c-1.3,2.1-2.2,4.8-3.8,6.6l0.3-0.3c0.7,0.9-1.5,1.2-1.8,2.5
							c0.1-0.3-0.3-0.7-0.2-0.5c-1.1,1.3-1.7,2.9-2.9,5.2l0-0.4c-0.8,0.7-1.6,2-2.3,2.8c0,0.4-0.3,0.9,0.2,0.8
							c-3.1,1.8-2.9,5.6-5.6,7.2c0.2-0.3,0.3-0.8,0.1-0.6l-1.2,2.2c0.5,0.1,0.4-0.1,1-0.3c0,0.4-0.2,1.1-0.5,1.6
							c0.4-1.1-0.6-0.4-1.1-0.2c0.2,0,0.2,0.2,0.3,0.3c-1.4,0.6,0.6,0.7-0.8,1.8l-0.1-0.2c-0.3,0.6-0.4,1.3-0.8,1.8
							c-0.6-0.1,0.2-0.7-0.1-1c-0.5,0.8-0.3,2.2-1.2,2.6c0.1-0.4,0.5-0.9,0.6-1.4c-1.1,0.4-1,0.6-1.5,1.2l0.1-0.1l-1.2,1.2l0.4-0.3
							c0.4,1.8-1.2,2.2-1.4,4.1c0.2-1.8-0.3-0.5-0.7-1c-0.4,0.3-0.9,0.7-0.9,0.4c-0.1,0.9-1.1,0.9-1.1,2.2c-0.2-0.1-0.5,0.7-0.8,0.3
							c-0.5,0.9,0.4,0,0.6,0.2c-0.4,1.7-2.8,2.6-3.4,5c-0.8,1.8-0.5,2.5-1.3,4.2c-0.6,0.3-0.3-0.8-0.3-0.8c-0.8,0.6-1.2,1.3-1.5,2.2
							c0-0.3-0.3-0.2-0.6-0.1c-0.4,0.6,0.3,0.8-0.5,1.5c-0.1-0.3-0.2-0.6-0.2-1.1c-0.4,0.8-0.6,1.8-0.9,2.6c-0.4,0-0.1-0.7-0.1-1.1
							c-0.5,0.9-1.3,2.4-1,2.9l0.5-0.4c-0.2,0.3-0.5-0.1-0.4-0.4c0.2-1,0.9-0.9,1.1-0.9l-0.3,0.6c1.3,0.1,1.4-2.3,2.2-3.3l0.4,0.9
							l0.2-1.5c0.3-0.1,0.8,0,0.6,0.6c0.9-0.5,0.2-0.9,1.1-1.3c0.1,0,0.1,0,0.1,0.1l0.3-0.9c0,0.2,0.6,0.2,0.1,0.6
							c1.3-1.1,1-2.5,1.9-2.7l0,0.1c1.1-2-0.4-0.5,0-2.3l1.9-0.1l-0.4-0.5c0.2-0.2,0.5-0.5,0.6-0.3c0.2-1-0.3,0-0.3-0.7
							c1.1-0.6,1.6-2.7,2.5-2.4c-0.1-0.6-0.9,0.7-0.5-0.5c1.1,0.3,0.7-1.3,1.6-1.8c0.3,0.6-0.5,1.2,0.5,0.6c-0.4-1,1.3-1.5,1.7-2.4
							c-0.6-0.5,0.8-1.7,1.5-3.1c0.1,0.2,1.9-2,2.9-3l0.1,0.1c-0.5-0.6,0.5-1.7,0.9-2.6c0.3,0.3,0.4,0.5,0.2,1.1l0.6-0.8
							c-0.1-0.3,0-0.6,0.3-1.2l0.3,0.5c0.7-1.1,1-2.5,2.2-3.6c-0.4-0.4-1.9,0.3-1.2-1.4c0.3,0.1,0.7,0.3,0.5,0.8
							c0.1-0.1,0.1-0.6,0.4-0.7l0,0.8c0.6-0.5-0.1-0.5,0.3-1c0.3,0.2,0.5-0.2,0.7,0c-0.1,0.1-0.4,0.3-0.4,0.6
							c0.4-0.5,1.1-1.1,1.5-1.1c-0.2-0.1-0.4-0.3-0.2-0.7c0.7-1.1,0.6-0.1,1.2-0.6c0-0.4,0.7-0.9,0.2-1.3c0.2-0.3,0.5-0.2,0.7-0.2
							c0.2-0.7,1.7-2.6,0.8-2.3l-0.1,0.1c0,0,0-0.1,0-0.1c0,0,0,0,0,0l0,0c0.8-2.1,2.9-3.5,3.9-5.4l0.2,0.1c0.6-1.2,1.5-2.4,1.7-3.4
							c0.2-0.3,0.8-0.5,0.9-0.3c0.4-0.9,0.3-1.1,1.4-2.1c-0.3,1,0.4-0.1-0.4,1c0.9-1,1.3-1,1.6-2.4c0.1,0.7,1.1-0.4,1.3-1l-0.8,0.5
							c0.3-0.6,0.7-1.1,1.1-1.5l0.4,0.7c2.2-1.7,1.6-4.7,3.8-5.5c0-0.8-1.1,1-1.2,0.2c0.8-0.9,2.3-1.4,2.5-1.7
							c1.2-1.1,0.1-1.8,1.3-3.1c-0.3,0-1-0.1-0.4-1.3c0.8-0.9,1.7-0.6,1.4,0.1c-0.1,0.2-0.3,0.3-0.4,0.3c-0.2,0.4-0.4,0.8,0.1,0.6
							l-0.1-0.3c0.5-0.4,1.5-1.7,1.6-1.2c0.3-0.9-0.1-0.5-0.6-0.1c1.2-1.1,1.4-2,2.5-3.2c-0.3,0.1-0.6,0.2-0.5,0
							c1.6-1.7,0.2-1.1,1-2.5c0.8-0.5,0.5,0.8,1.2-0.7c0.8-0.7,0.6,0.2,0.6,0.6c0.5-1.5,1.8-2.1,2.3-2.7l-0.3,0.7
							c0.2-0.4,0.4-0.7,0.6-1.1l-0.6,0.1c0.3-0.3,0.5-0.6,0.7-0.5c0-0.6-0.9-0.2-0.7-1.2c0.5-0.4,0.8-1.6,1.5-1.5
							c-1.3,1.4,0.6,0.2-0.2,1.6c0.1-0.3,0.3-0.6,0.7-0.9c0.1,0,0.1,0.1,0,0.2c1.5-1.2-0.1-1.1,1-2.6c0.2,0.4,0.8,0,0.9-0.3
							c-0.4,0.6-0.7,0-0.5-0.8c0.9-0.8,0.6-1.2,1-1.7l-0.5,0.5c-0.2-0.4,0.2-0.9,0.6-1.6c0.3,0.1-0.3,0.7,0,0.6
							c0-1.1,1.7-1.3,2.1-2.6c0.5-0.4,0.6,0.3,1,0c0.5-1.5,1.3-1,1.9-2.5c-0.6,0.1-0.6,0.2-0.4-0.9l-1.2,2.2l0.4-1.7
							c-0.4,0.6-0.7,1.5-1,1.8c0.1-0.9,0.2-0.7-0.4-0.6c1.2-0.4,0.8-1.9,1.9-2.6l0.9,0.7c1.5-1.2,1.3-3,2.9-4.7l-0.6,0.5
							c-0.2-0.5,0.8-1.2,1-1.9c0.3,0.3,0.7,0,1.1-0.1c-0.3-0.1,1-1.4,0.5-2l1-0.6c1.3-1.4,0.3-2.4,1.5-3.8c0,0.7,0.7,0.2,0.3,1.3
							c0.4-0.5,0.7-0.9,0.5-1.1c0.4-0.1,0.5-1.7,1.2-1.9c0-0.3-0.3-0.6,0.1-1.2c0.1,0,0.2,0.1,0.2,0.1c-0.2-0.1,0.4-1-0.3-0.8
							c2.1-0.8,2.9-4.3,4.7-5c0.6-1.2,1.5-2.5,2.1-3.5c0.1,0.1,0.2,0.1,0,0.3c1.2-1.1-0.3-1.5,1.1-2.8c1.1-0.4-0.3,1,0.3,0.7
							c1.2,0.5,1.2-2,2.5-2.6l-0.1,0.3c0.9-0.5,0.9-2.2,1.9-3.5c0,0,0.1,0.1,0.2,0.1c0.1-1.3,1.1-3.1,1.8-4.4
							c0.1,0.7-0.2,0.7,0.4,0.8c0.3-0.6-0.8-0.3-0.1-1.5c0.5-0.2,1.2-0.9,1.8-0.7l-0.7,1.1c1-0.1,0.9-1.4,1.4-1.9l0.2,0.2
							c1-1.7,0.4-2.1,1.7-3.8l-0.3,0c0-1.4,0.9-0.5,1.1-1.8l0.8,0.2c0.3-0.7,0.9-2.6,1.6-3.8c0,1-0.6,2.5-0.9,3.5
							c0.4-0.6,1.4-2.1,1.3-2.7c-0.1,0.3-0.2,0.7-0.4,0.9c0-1.1,0.5-2.3,1.3-3.5c1.1,1.1,2.6-3,4.2-3.2c1.1-2.5,3.2-4.2,4.9-6.8
							c-1.6,0.2,0.5-0.8-0.6-1.3c0.3-0.6,0.5-0.9,0.6-0.9l1.9-1.4c0.6-0.2-0.2,0.7,0.1,0.8c1-1.2,0.8-0.2,1.7-0.9
							c-0.5-0.1-0.2-0.8,0.5-1.5l-1.2,0.7c0.7-2.2,1.9-1,2.7-3.2l-0.1,0.8c0.5-1.1,2.4-3.5,2.3-4.9c0.2-0.1,0.7-0.1,0.4,0.4
							c1.7-2.2,2.6-5.6,4.3-7l0.1,0.3c0.2-0.5,0-1.1,0.7-1.4c0.1,0.1,0.1,0.3,0.3,0.2c0.1-0.3,0.3-1.4,0.9-1.9l-0.1,0.7
							c1.8-2,1.7-3.8,2.8-5.8c0.7,0.5,2.2-1,2.9-1.8l0.1,0.1c1.9-2.5,2.4-4.7,3.8-7.3c1.8-0.9,3.8-4.7,5.9-6.8
							c-0.4,0.3-0.5-0.5-0.3-0.9c0.5-0.4,0.6-1.9,1.2-1.3l-0.2,0.2c0.9,0,1.6-1.2,2.2-2.1l-0.8-0.8c2.9-1.4,3.8-6.4,5.8-6.9
							c0.2-0.7,0.7-1.4,0.8-2.1l0.4,0.4c1.2-1.5,1.8-2.2,3-4.2l0.1,0.6c0.8-1.1-0.4-2.3,0.3-3.3l0.9,0.2c1.3-1.9,3.2-3.4,3.9-5.7
							c0.1,0.1,0.2,0.3,0.1,0.6c0.6-0.9,2.9-3.1,1.7-3.4c0.6,0.4,1.4-1.9,1.9-3.1l0.3,0.5c0-1.3-0.1-1.4,0.6-2.7
							c0.3-0.2,0.5,0,0.2,0.3c0.9-0.8,0.1-1,1.1-2l0,0.6c0.7-0.9,0.5-1,0.5-1.8c0.2-0.7,1.4-1.8,1.9-1.6c-0.2-0.3-0.1-1.1,0.4-1.6
							c0.2,0,0.2,0.3,0.1,0.4c1.5-1.4,1.2-2.8,2.4-3.6c0.2,0.1,0.3,0.1,0.4,0c-0.9,1.3-1.7,2.3-1.6,2.2c0.4,0.3,1.2-0.7,1.2,0.5
							c0.3-1.1,0.6-3,1.5-3.9c0.1,0,0.1,0,0.2,0l0,0.1c0.2-0.2,0.3-0.4,0.4-0.7c0.3-0.3,0.5-0.4,0.7-0.8c0.4,0.1,1-1.1,1.4-1.6
							c-0.5-0.3,0.1-0.9-0.8-0.5c0.1-0.1,0,0.1-0.2,0.5c0,0.1-0.1,0.2-0.1,0.3c0,0,0,0,0-0.1c-0.2,0.4-0.5,0.8-0.9,1.3
							c0.1-0.6,0.2-1.1,0.8-1.5c-0.1-0.5-0.2-1-0.2-1.2c1.1-0.3,2.5-1.4,3-1.3c0.9-1.8,2.5-3.9,2.3-5.5c0.2-0.5,0.6-0.3,0.9-0.4
							c-0.1,0.3-0.3,0.6-0.3,0.9c0.4-1.1,1.8-2.7,1.3-3.4c1.1-0.9,0.1,1,1.1-0.6l0,0.3c3.1-2.4,2-6.1,5.6-8.6
							c-0.2,0.2-0.4,0.3-0.5,0.3c3.3-3.5,5.1-8.4,8.7-11.6c0.9-1,0.6-1.4,0.8-2.2L264,65l0.2-1.5c0.7-1.9,3.2-2,3.8-4.6l-0.5,0
							c0.6-0.7,1.4-2.5,1.7-2.1c0-0.1-0.2-0.5,0.2-0.6l0.3,0.2l0.8-2.1c1.2-1.3,0.9,0.9,2.4-1.1c0.4-0.8,0.8-2.7,0.4-2.5
							c-0.2,0.3-0.7,0.7-1,0.5l0.4-0.8c-0.7-0.7-1.1-1.7-2.8-0.4l-0.4,1.5l-0.6,0.1l0.7-1c-0.7,0.3-0.7,0.9-0.8,1.4
							c-0.3,0-0.5,0-0.8,0.2l-0.1,1.7c-0.4-0.1-0.2-0.9-0.9-0.3c0,0.8,1-0.1,0.6,1c-0.7,0.3-0.9,0-1.1,0.8c-0.3,0-0.3-0.3-0.2-0.6
							c-0.2,0.8-1,1.6-0.8,2.2c-0.8,0.3-1.3,2.1-2,1.5c0,0.3-0.2,1.4-0.5,2c-0.2-1.6-1.5,2-2.2,1.1c0.3,1.3-1.5,2.9-2,4.5
							c0-0.1,0-0.3,0.1-0.4c-0.6,0.7-1,0.7-1.4,1.1c0.6,0.5-0.1,1.8-0.1,2.7c-1.2,0.5-0.4-1.1-1.2-1.2c0.6,0.3-0.6,1.9,0.1,1.9
							c-0.9,0.4-0.6,0.5-1.4,0.4c0.7,0.7-0.3,0.7-0.2,1.7c-1.1,0.7-0.9-0.3-1.5,1C252.6,73.8,253,72.6,253,72.6z M236.2,99.7
							C236.2,99.7,236.2,99.7,236.2,99.7c0.1-0.2,0.3-0.4,0.3-0.6C236.4,99.2,236.3,99.4,236.2,99.7z M234.6,101.9
							c0.2-0.3,0.4-0.6,0.7-0.9c0.2,0,0.3,0.2,0.2,0.4C235.5,101.2,235,101.7,234.6,101.9z M241.1,99.5c-0.2,0.4-0.3,0.4-0.5,0.4
							c0.1-0.2,0.2-0.4,0.4-0.6c0,0,0-0.1,0-0.1C241,99.3,241.1,99.4,241.1,99.5z"/>
						<path class="st1" d="M240.9,98.4c0-0.1,0-0.1,0.1-0.2c-0.1,0-0.2,0.1-0.2,0.1c0,0.1,0,0.2,0.1,0.2
							C240.8,98.6,240.9,98.5,240.9,98.4z"/>
						<path class="st1" d="M101.4,296.6L101.4,296.6C101.4,296.5,101.3,296.6,101.4,296.6C101.3,296.6,101.3,296.6,101.4,296.6z"/>
						<polygon class="st1" points="212.6,131.5 212.7,131.6 212.8,131.3 						"/>
						<path class="st1" d="M91.4,307.5c-0.1,0-0.1,0-0.2,0.1C91.2,307.6,91.2,307.6,91.4,307.5z"/>
						<path class="st1" d="M87.6,312.7l-0.7,0.6C87.2,313,87.4,312.8,87.6,312.7z"/>
						<path class="st1" d="M84.6,316.5c0,0.1,0.1,0.2,0.1,0.2c0,0,0,0,0,0L84.6,316.5z"/>
						<path class="st1" d="M128.6,252.4c0-0.1,0.1-0.1,0.1-0.2C128.8,251.8,128.7,252.1,128.6,252.4z"/>
						<path class="st1" d="M116.4,272.1c0.1-0.3,0.1-0.5,0.2-0.8C116.3,271.7,116.1,271.9,116.4,272.1z"/>
						<path class="st1" d="M142.8,230.8C142.8,230.9,142.8,230.8,142.8,230.8c0,0,0.1-0.1,0.1-0.1L142.8,230.8z"/>
						<path class="st1" d="M117.2,270.5c-0.3,0.3-0.5,0.6-0.6,0.9C116.8,271.1,117.1,270.8,117.2,270.5z"/>
						<path class="st1" d="M72.2,333.7l-0.2,0.2c0,0,0,0,0.1,0.1L72.2,333.7z"/>
						<path class="st1" d="M72.1,334l-0.1,0.3C72.1,334.1,72.2,334,72.1,334z"/>
						<path class="st1" d="M71.8,334.8l0.2-0.5C71.9,334.4,71.8,334.6,71.8,334.8z"/>
						<path class="st1" d="M76.1,328.6l-0.1-0.2C76,328.5,76.1,328.5,76.1,328.6z"/>
						<path class="st1" d="M77.2,326.9c-0.3,0.4-1,0.7-1.3,1.3l0.1,0.1C75.9,328,77.2,327.5,77.2,326.9z"/>
						<path class="st1" d="M84,321.6l-1.1,1.3c0.3-0.1,0.8-0.3,0.4,0.4C85,322,82.7,323.4,84,321.6z"/>
						<path class="st1" d="M87.2,317.6c-0.4,0.8,0.3,0.2,0.3,0.3C87.7,317.3,87.7,317.2,87.2,317.6z"/>
						<path class="st1" d="M108.3,287.4l0.4,0.4C109,287.1,108.6,287.6,108.3,287.4z"/>
						<polygon class="st1" points="110.2,280.1 109.6,280.4 109.8,281 						"/>
						<polygon class="st1" points="115.6,278.7 115.5,279 116,278 						"/>
						<path class="st1" d="M151,227.8l-0.6-0.2C150.2,228,150.7,228.5,151,227.8z"/>
						<path class="st1" d="M165.8,205.5c0.4-0.1,1-0.6,1-1.1C166.5,204.8,165.9,205.2,165.8,205.5z"/>
						<polygon class="st1" points="212.7,140.2 212.5,140.8 213,139.9 						"/>
					</g>
				</g>
			</g>
		</g>
	</g>
	<g>
		<g>
			<g>
				<g>
					<g>
						<path class="st1" d="M143.9,418.8c0,0.2,0.3,0.5,0.4,0.3l-0.3-0.6L143.9,418.8z"/>
						<path class="st1" d="M145.7,419c0-0.4-0.1-1-0.6-1.4c0.2,0.7,0,0.5,0.2,1.2c-0.1,0.2-0.4,0.1-0.5-0.2c0,0.2-0.4,0.1-0.2,0.5
							c0.5,0.2,0.8,0.1,0.9-0.5C145.6,418.7,145.7,418.9,145.7,419z"/>
						<path class="st1" d="M163,407.4l-0.2,0C162.9,407.5,163,407.5,163,407.4z"/>
						<path class="st1" d="M173.6,400.1c-0.1,0.1-0.1,0.1,0,0.2C173.6,400.2,173.6,400.1,173.6,400.1z"/>
						<path class="st1" d="M175.8,399.3c-0.1,0-0.1,0-0.1,0C175.7,399.4,175.8,399.4,175.8,399.3z"/>
						<path class="st1" d="M163,407.4l0.4,0C163.3,407.2,163.2,407.4,163,407.4z"/>
						<path class="st1" d="M147.1,416c0,0.1,0,0.2,0,0.3C147.1,416.2,147.1,416.1,147.1,416C147.1,416,147.1,416,147.1,416z"/>
						<path class="st1" d="M158.8,411.2L158.8,411.2c-0.1,0.1,0,0.2,0,0.3L158.8,411.2z"/>
						<path class="st1" d="M155.4,413.9c0.1,0-0.2-0.5-0.3-0.7c0.1,0.2,0.1,0.4,0.1,0.4C155.1,413.7,155.2,413.8,155.4,413.9z"/>
						<path class="st1" d="M149.2,417.2l-0.1,0.1C149.2,417.3,149.2,417.3,149.2,417.2z"/>
						<path class="st1" d="M161.4,409.5c0.1,0.1,0.1,0.1,0.2,0.1C161.5,409.6,161.4,409.5,161.4,409.5z"/>
						<path class="st1" d="M256.6,333.6C256.6,333.7,256.6,333.7,256.6,333.6C256.6,333.6,256.6,333.6,256.6,333.6z"/>
						<path class="st1" d="M262.3,332.9L262.3,332.9c0,0.2,0.1,0.2,0.1,0.3L262.3,332.9z"/>
						<path class="st1" d="M179.4,397.5C179.4,397.5,179.4,397.5,179.4,397.5C179.4,397.6,179.4,397.6,179.4,397.5z"/>
						<path class="st1" d="M208.8,375.2c-0.6-0.2,0.2-0.9-0.7-1C208.3,374.4,208.2,375.3,208.8,375.2z"/>
						<path class="st1" d="M147.2,416c0,0,0.1-0.1,0.1-0.1C147.3,415.9,147.2,415.9,147.2,416z"/>
						<path class="st1" d="M208.1,374.2C208.1,374.2,208.1,374.2,208.1,374.2L208.1,374.2C208.1,374.2,208.1,374.2,208.1,374.2z"/>
						<path class="st1" d="M186.7,391.7c-0.1-0.1-0.1-0.1-0.2-0.1C186.5,391.6,186.5,391.7,186.7,391.7z"/>
						<path class="st1" d="M180.6,395.2l0.2,0C180.7,395.2,180.7,395.2,180.6,395.2z"/>
						<path class="st1" d="M189.1,389c0.1,0,0.2,0,0.2-0.1c0,0,0,0-0.1,0C189.2,388.9,189.2,389,189.1,389z"/>
						<path class="st1" d="M192,386.8c0,0-0.1,0-0.1,0c0,0-0.1,0.1-0.1,0.1L192,386.8z"/>
						<path class="st1" d="M247.6,340.6c0.2,0.1,0.3,0.2,0.4,0.3C247.8,340.6,248.1,340.2,247.6,340.6z"/>
						<path class="st1" d="M147.3,416.2c-0.1-0.1-0.1-0.2-0.1-0.3c0,0-0.1,0.1-0.1,0.1C147.2,416.1,147.2,416.2,147.3,416.2z"/>
						<path class="st1" d="M186.5,385.3l0.5-0.3C186.9,385.1,186.7,385.2,186.5,385.3z"/>
						<path class="st1" d="M226.2,356.6l0.1-0.1C226.2,356.5,226.2,356.5,226.2,356.6z"/>
						<path class="st1" d="M188.4,383.9c0.2,0.1,0.4,0.1,0.5,0.1c0-0.1,0-0.1,0-0.2L188.4,383.9z"/>
						<path class="st1" d="M248.1,340.9C248.1,340.9,248.1,340.9,248.1,340.9C248.1,340.9,248.1,340.9,248.1,340.9z"/>
						<path class="st1" d="M250.4,337.5c-0.5,0.3,0.2,0.7,0.4,1.2c-0.4,0.6-0.6-0.3-1-0.4c-0.2,0.4-0.1,1.1-0.3,1.3
							c-0.1-0.1-0.2-0.1-0.2-0.2c0,0.7-1,0.8-1,1.7c-0.1,0-0.1-0.1-0.2-0.1c0.3,0.2,0.5,0.5,0.7,0.8c-0.2,0.2-0.1,0.7-0.5,0.3
							c0.1-0.1,0-0.2,0-0.4l-0.1,0.3c-0.6-0.4,0.1-0.4-0.2-0.8c-0.3,0.5-0.4,1.3-0.9,1.4c-0.5-0.5,0.6-0.7-0.2-0.9l0.6-0.2
							c-1-0.6,0.3-0.2-0.7-0.8c-0.8,0.3-0.5,0.8-1.3,1.1c0.1,0.4,0.4,0.4,0.5,0.8c-0.5,1.2-1.7-0.8-1.9,0.4c0.1,0.5,0.5,1.2-0.2,1.2
							l-0.3-0.7c-0.7,0.4,0.3,1.2-0.7,1.2c-0.1-0.3,0.3-0.6,0.2-0.6c-0.8-0.2,0,0.6-0.4,0.8l-0.5-0.5c-0.6,0.6-1,1.5-1.7,2.2
							c-0.1-0.2-0.1-0.5-0.4-0.5c-0.7,1-2,1.4-3.2,1.8l0,0.7c-0.1,0.1-0.3-0.1-0.3-0.3c-0.5,0.1,0.2,0.3,0.2,0.6
							c-0.2,0.2-0.5-0.1-0.4-0.3c-0.3,0.9-1.1,2.2-2.1,2.1l0-0.2c-0.6,0.2,0.1,1.4-0.7,1.3l0-0.2c-1.3,0.6-2.1,1.9-3.5,1.9
							c0.3,0.8-1.3,0.5-0.7,1.5c-1,0-0.9-0.3-2,0c-0.3,0.1,0.1,0.9-0.1,1.2l-0.4-0.5l0,0.8l-0.7-0.4l-0.2,0.3
							c0.1-0.1,0.4,0.1,0.5,0.2c-0.3,0.5-1.3,0.4-1.5,0.2l-0.7,1.2c-0.1-0.2,0-0.4,0-0.6c-0.2,0.9-0.5-0.4-0.6,0.4
							c0.1,0.1,0.2,0.3,0.2,0.4c-0.5-0.1-1,0.3-1.4,0.7l-0.2-0.4c-0.8,0.5-1.5,1.3-2.3,2c0.4-0.1,0.8,0.6,0.6,0.8l-0.5-0.5
							c0.1,0.4,0.4,0,0.4,0.6c-0.4,0.2-0.7-0.4-0.6-0.7l-0.2,0.5c-0.1-0.1-0.1-0.3-0.2-0.5c0.1,0.4-1.1,0-0.9,0.7l-0.1-0.1
							c-0.8,0.6-1.1,1.1-1.8,1.6c0.3,0.5,0,0.6,0,1.1c-0.6,0.2-1.4,0.3-2,0.8c-0.3,0.5,0.2,0.5,0.2,0.9c-0.3-0.4-0.9,0.1-0.8-0.4
							c-0.7,0.6-0.9,0.8-1.5,1.8c0.2,0.1,0.4,0.1,0.4,0.3c-0.1,0.2-0.5,0.1-0.6-0.1l0-0.1c-0.6,1.4-3.3,0.6-3.5,2l0-0.1l-0.5,1.1
							c-0.4,0.2,0-0.5-0.5-0.5c-0.4,1.4-1.5,1-2,2c-1.5-0.8-2,1.6-3.4,1.4l0.3,0.3c0,0.4-0.4,0-0.6,0.1c0.2,0.2,0.4,0.1,0.4,0.3
							c-1.5,1.6-3.9,2.2-5.9,3.3c-0.7,0.4,0.7,1.8-0.6,1.7l-0.2-0.7c-0.8,1.6-2.7,2-3.6,3.5c0-0.2-0.1-0.3,0-0.4
							c-0.6-0.2-1,0.7-0.8,1c-0.2,0.1-0.3-0.2-0.5-0.3c-0.4,0-0.3,1-0.7,0.7c-0.1,0,0-0.2,0-0.2c0,0.3-0.9,0.6-0.4,0.9
							c-0.6,0.1-0.8,0.9-1.4,0.9c0.1,0.7-1,0.4-0.6,1.1c-0.5-0.8-1.3,0-1.3,0.6c-0.1-0.3-0.4,0-0.5-0.4c-0.3,0.3-0.6,0.6-0.2,1
							c-1.3-0.4-0.8,1.7-2,0.8c-0.7,1.2-1.5,2.1-2.3,3c-0.5-0.7,1-0.8,0.4-1.6c-0.7,1-0.7,2-1.7,2.4c-0.3,0.1-0.1-0.4-0.1-0.6
							c-0.7,1-1.8,1.2-2.3,2.2c0-0.1,0-0.2,0-0.3c-0.1,0.1-0.4,0.2-0.2,0.5l0.1-0.2c0.6,0.3,0.1,1.5,0.3,1.7c-0.4-1.1-1,0.3-1.4-1.2
							c-0.1,0.1-0.1,0.4,0.1,0.6c-0.2,0-0.3,0-0.4-0.4c-0.4,0.6,0,0.8-0.5,1.2c-0.1-0.2-0.1-0.3-0.1-0.5c0,0.5,0,1-0.6,1.2
							c0-0.1-0.2-0.2-0.1-0.3c-0.7,0.6-0.6,1.8-1.7,2c-0.3-0.9-0.4,0-0.9-0.6l-0.3,0.5l0.4,0.2c-0.4,0.3-0.4,1-0.9,1l0.1-0.5
							l-0.6,0.6l0.6-0.1c-0.2,0.6,0.6,0.7,0,0.9c0.1-0.1-0.4,0.3-0.8,0.1c0,0,0,0,0,0c0,0.3-0.1,0.7-0.5,0.7
							c-0.2-0.1-0.4-0.7-0.6-0.8c0.2,0.6-0.8,0.8-0.6,1.5c0-0.2-0.2-0.5-0.3-0.5l0.1,0.5c-0.3,0-0.3,0-0.5-0.3
							c-0.6,0.3,0.7,0.6-0.1,0.8c0-0.1,0-0.1,0-0.3c-0.8,0.3-1,1.2-1.7,1.4c-0.6-0.5,0.4-0.5-0.2-0.9c-0.7,0.7-1.2,2-2.1,2.5l0.2,0
							c0.5,0.9-0.9,0-1,0.7c0.1-0.1-0.2-0.6-0.2-0.5c-0.7,0.3-1,1-1.6,1.9l-0.1-0.3c-0.5,0-0.9,0.5-1.4,0.7c0.1,0.3-0.2,0.4,0.2,0.6
							c-2-0.4-1.6,2.2-3.3,1.9c0.1-0.1,0.1-0.4,0-0.3l-0.7,0.8c0.3,0.3,0.3,0.1,0.7,0.3c0.1,0.3,0,0.6-0.2,0.8
							c0.2-0.5-0.4-0.6-0.8-0.7c0.1,0.1,0.1,0.3,0.2,0.4c-0.9-0.3,0.5,0.8-0.4,0.8l-0.1-0.2c-0.1,0.3-0.2,0.7-0.4,0.8
							c-0.4-0.4,0.1-0.4-0.2-0.7c-0.3,0.3,0,1.3-0.7,1.1c0.1-0.2,0.3-0.4,0.3-0.6c-0.7-0.3-0.6-0.1-0.9,0l0,0l-0.7,0.2l0.2,0
							c0.4,1.4-0.7,0.8-0.7,2c0-1.1-0.2-0.5-0.5-1c-0.2,0-0.6,0-0.6-0.2c0,0.6-0.7,0-0.6,0.9c-0.1-0.1-0.3,0.2-0.5-0.2
							c-0.3,0.4,0.3,0.2,0.4,0.4c-0.1,0.9-1.7,0.3-1.9,1.6c-0.4,0.8-0.2,1.4-0.6,2.1c-0.4-0.1-0.3-0.7-0.3-0.7
							c-0.5,0-0.7,0.2-0.9,0.7c0-0.2-0.2-0.3-0.4-0.4c-0.2,0.2,0.3,0.7-0.2,0.7c-0.1-0.2-0.2-0.5-0.2-0.8c-0.2,0.4-0.3,0.9-0.5,1.2
							c-0.3-0.2-0.1-0.6-0.1-0.8c-0.3,0.4-0.7,0.9-0.5,1.4l0.3,0c-0.1,0.1-0.3-0.3-0.3-0.5c0-0.6,0.5-0.2,0.7,0l-0.1,0.3
							c0.9,0.8,0.8-0.8,1.2-1.1l0.3,0.8l0-0.9c0.2,0.1,0.6,0.4,0.4,0.7c0.6,0.1,0.1-0.4,0.6-0.3c0.1,0,0.1,0.1,0.1,0.1l0.2-0.4
							c0,0.2,0.4,0.4,0.1,0.5c0.8,0,0.5-1.2,1.1-0.8l0,0.1c0.6-0.8-0.3-0.5-0.1-1.5l1.3,0.9l-0.3-0.5c0.1,0,0.3-0.1,0.4,0.1
							c0-0.6-0.2-0.2-0.3-0.6c0.7,0.2,0.9-1,1.6-0.3c-0.1-0.5-0.6,0-0.4-0.6c0.7,0.8,0.4-0.5,1-0.4c0.2,0.5-0.3,0.5,0.4,0.7
							c-0.3-0.9,0.8-0.3,1-0.7c-0.4-0.6,0.5-0.7,0.8-1.3c0.1,0.2,1.2-0.4,1.8-0.5l0.1,0.1c-0.3-0.7,0.2-0.9,0.5-1.3
							c0.2,0.4,0.3,0.5,0.2,0.8l0.3-0.2c-0.1-0.2,0-0.4,0.1-0.6l0.2,0.5c0.4-0.3,0.5-1.2,1.2-1.3c-0.3-0.4-1.3-0.8-0.9-1.5
							c0.2,0.2,0.5,0.6,0.4,0.8c0-0.1,0-0.3,0.2-0.3l0,0.5c0.4,0-0.1-0.4,0.1-0.5c0.2,0.3,0.3,0.1,0.5,0.4c0,0.1-0.3,0-0.3,0.2
							c0.3-0.1,0.7-0.1,0.9,0c-0.2-0.2-0.3-0.4-0.2-0.6c0.4-0.3,0.4,0.3,0.8,0.3c-0.1-0.3,0.4-0.3,0-0.8c0.1-0.1,0.3,0.1,0.5,0.2
							c0.1-0.4,1-0.8,0.4-1.1l-0.1,0c0,0,0,0,0,0c0,0,0,0,0,0l0,0c0.4-1,1.7-0.8,2.3-1.6l0.1,0.2c0.3-0.5,0.9-0.8,0.9-1.4
							c0.1-0.1,0.5,0.1,0.6,0.3c0.2-0.4,0.1-0.6,0.8-0.7c-0.1,0.5,0.3,0.2-0.2,0.5c0.5-0.2,0.8,0,0.9-0.8c0.1,0.5,0.7,0.3,0.8,0
							l-0.5-0.1c0.2-0.2,0.4-0.3,0.6-0.5l0.3,0.6c1.4,0,0.8-2.3,2.2-1.7c0-0.5-0.7,0.1-0.8-0.5c0.5-0.2,1.4,0.2,1.6,0.1
							c0.8-0.1-0.1-1.2,0.7-1.4c-0.2-0.1-0.7-0.6-0.4-1.1c0.5-0.2,1.1,0.4,0.9,0.8c-0.1,0.1-0.2,0.1-0.2,0c-0.1,0.2-0.2,0.4,0.1,0.5
							l-0.1-0.2c0.3,0,0.9-0.4,1,0c0.2-0.4-0.1-0.4-0.4-0.3c0.7-0.1,0.8-0.6,1.5-0.8c-0.2,0-0.4-0.2-0.3-0.3c1-0.3,0.1-0.6,0.5-1.1
							c0.5,0.1,0.4,0.8,0.8,0.1c0.5,0,0.4,0.5,0.4,0.7c0.2-0.7,1.1-0.4,1.4-0.6l-0.1,0.3c0.1-0.2,0.2-0.3,0.3-0.4l-0.4-0.3
							c0.2,0,0.3-0.1,0.4,0c0-0.4-0.6-0.5-0.5-1.1c0.3,0,0.5-0.7,0.9-0.2c-0.8,0.3,0.4,0.5,0,0.9c0.1-0.1,0.2-0.2,0.4-0.3
							c0.1,0,0.1,0.1,0,0.2c0.9,0-0.1-0.8,0.5-1.2c0.1,0.3,0.5,0.4,0.6,0.3c-0.3,0.2-0.5-0.4-0.4-0.8c0.6-0.1,0.3-0.5,0.5-0.6
							l-0.3,0.1c-0.1-0.3,0.1-0.5,0.3-0.8c0.2,0.2-0.1,0.3,0,0.4c-0.1-0.7,1.1,0,1.3-0.7c0.3,0,0.4,0.5,0.7,0.5
							c0.2-0.7,0.8,0,1.1-0.7c-0.4-0.3-0.4-0.2-0.3-0.8l-0.6,0.9l0.1-1c-0.3,0.2-0.4,0.6-0.6,0.7c0-0.5,0.1-0.4-0.3-0.6
							c0.8,0.3,0.4-0.8,1.1-0.7l0.7,1c0.9,0,0.7-1.3,1.7-1.6l-0.4,0c-0.2-0.5,0.4-0.4,0.6-0.7c0.2,0.3,0.5,0.3,0.7,0.5
							c-0.2-0.2,0.6-0.4,0.2-1.1l0.7,0.2c0.8-0.3,0-1.4,0.7-1.8c0.1,0.5,0.5,0.5,0.3,1c0.2-0.1,0.4-0.2,0.3-0.4
							c0.3,0.1,0.2-0.8,0.6-0.7c0-0.2-0.2-0.6,0-0.7c0.1,0,0.1,0.2,0.1,0.2c-0.1-0.2,0.2-0.5-0.3-0.7c1.4,0.5,1.7-1.4,2.9-0.9
							c0.4-0.4,0.8-0.9,1.2-1.2c0,0.1,0.1,0.2,0,0.2c0.8-0.1-0.3-1.2,0.5-1.3c0.7,0.3-0.1,0.5,0.2,0.6c0.9,1,0.7-0.7,1.5-0.4
							l-0.1,0.1c0.6,0.1,0.5-1,1.1-1.3c0,0,0,0.1,0.1,0.2c0-0.8,0.5-1.5,0.9-2c0.1,0.5-0.1,0.4,0.3,0.7c0.2-0.2-0.6-0.6-0.2-1.1
							c0.3,0.1,0.8,0.1,1.2,0.5l-0.4,0.3c0.6,0.4,0.5-0.4,0.8-0.5l0.2,0.3c0.6-0.6,0.1-1.2,0.9-1.7l-0.2-0.1
							c-0.1-0.9,0.6,0.1,0.6-0.6l0.6,0.5c0.1-0.3,0.4-1.3,0.8-1.7c0.1,0.7-0.3,1.3-0.4,1.8c0.3-0.2,0.8-0.7,0.7-1.1
							c-0.1,0.1-0.1,0.4-0.2,0.4c-0.1-0.7,0.2-1.3,0.7-1.6c0.8,1.3,1.5-0.7,2.6,0c0.5-1.1,1.9-1.1,2.9-1.9c-1.1-0.7,0.3-0.3-0.5-1.2
							c0.2-0.2,0.3-0.3,0.4-0.2l1.2,0c0.4,0.2-0.1,0.4,0.1,0.6c0.6-0.3,0.5,0.3,1.1,0.3c-0.3-0.3-0.2-0.6,0.2-0.7l-0.8-0.1
							c0.3-1.1,1.2,0.4,1.6-0.7l0,0.5c0.2-0.5,1.4-1,1.2-2.1c0.2,0.1,0.4,0.3,0.3,0.5c1-0.6,1.4-2.3,2.5-2.4l0.1,0.3
							c0.1-0.2,0-0.7,0.4-0.6c0.1,0.1,0.1,0.3,0.2,0.2c0-0.1,0.1-0.8,0.5-0.8l0,0.4c1.1-0.3,0.9-1.7,1.5-2.4
							c0.5,0.7,1.4,0.4,1.8,0.3l0.1,0.1c1.1-0.7,1.3-1.9,2.1-2.9c1.2,0.3,2.3-1.2,3.5-1.4c-0.2,0-0.4-0.6-0.3-0.8
							c0.3,0,0.3-1,0.7-0.3l-0.1,0c0.6,0.5,1,0,1.3-0.2l-0.6-0.9c1.9,0.5,2.1-2.3,3.5-1.6c0.1-0.4,0.4-0.6,0.4-1l0.3,0.5
							c0.7-0.4,1.1-0.5,1.8-1.2l0.1,0.4c0.5-0.3-0.4-1.7,0-2l0.6,0.6c0.8-0.6,2-0.6,2.3-1.7c0.1,0.1,0.2,0.3,0.1,0.4
							c0.4-0.2,1.7-0.6,0.9-1.4c0.5,0.6,0.8-0.5,1-1.1l0.3,0.5c-0.1-0.8-0.2-1,0.2-1.5c0.2,0,0.4,0.3,0.1,0.3c0.6-0.1,0-0.6,0.6-0.8
							l0,0.4c0.4-0.3,0.3-0.4,0.2-0.9c0.1-0.4,0.8-0.4,1.2-0.1c-0.1-0.3-0.2-0.8,0.2-0.8c0.1,0.1,0.1,0.3,0.1,0.4
							c0.9-0.2,0.6-1.2,1.4-1.1c0.1,0.1,0.2,0.2,0.3,0.2c-0.5,0.4-1,0.7-1,0.6c0.3,0.4,0.8,0.2,0.9,1c0.1-0.6,0.2-1.7,0.7-1.8
							c0,0,0.1,0,0.2,0.1l0,0.1c0.1,0,0.2-0.1,0.2-0.3c0.2,0,0.3,0,0.4-0.1c0.3,0.3,0.6-0.2,0.8-0.3c-0.4-0.4,0-0.6-0.6-0.8
							c0.1,0,0,0.1-0.1,0.2c0,0-0.1,0.1-0.1,0.1c0,0,0,0,0-0.1c-0.1,0.1-0.3,0.3-0.5,0.4c0-0.4,0-0.7,0.4-0.6
							c-0.1-0.4-0.2-0.8-0.2-0.9c0.8,0.4,1.6,0.3,1.9,0.7c0.5-0.7,1.4-1.3,1.2-2.4c0.1-0.2,0.4,0.1,0.6,0.2c0,0.2-0.2,0.2-0.1,0.4
							c0.2-0.5,1-0.9,0.7-1.5c0.7-0.1,0.1,0.7,0.7,0.2l0,0.2c2,0,0.9-3,3.2-2.8c-0.2,0-0.2,0-0.3-0.1c2-0.6,2.9-2.9,5.1-3.2
							c0.6-0.2,0.3-0.6,0.4-1.1l0.5,0.4l0-0.9c0.4-0.9,2,0.3,2.3-1l-0.3-0.2c0.3-0.2,0.8-0.9,1-0.5c0-0.1-0.2-0.4,0.1-0.3l0.2,0.2
							l0.4-1c0.7-0.2,0.7,1.1,1.5,0.5c0.2-0.3,0.3-1.4,0.1-1.5c-0.1,0.1-0.4,0.1-0.6-0.2l0.2-0.3c-0.5-0.8-0.9-1.7-1.9-1.7l-0.1,0.8
							l-0.4-0.2l0.4-0.3c-0.5-0.2-0.4,0.2-0.4,0.6c-0.2-0.2-0.3-0.2-0.5-0.2l0.1,1.1c-0.3-0.2-0.2-0.7-0.7-0.7c0,0.5,0.7,0.5,0.5,1
							c-0.5-0.2-0.6-0.5-0.7,0c-0.2-0.2-0.2-0.3-0.2-0.5c-0.1,0.4-0.6,0.6-0.4,1.1c-0.6-0.2-0.7,0.7-1.2,0c0,0.2,0,0.9-0.2,1.1
							c-0.2-1.1-0.9,0.6-1.4-0.4c0.3,1-0.8,1.1-1,2c0-0.1,0-0.2,0-0.2c-0.3,0.2-0.6,0-0.9,0c0.4,0.7,0.1,1.1,0.1,1.7
							c-0.8-0.3-0.3-0.9-0.9-1.4c0.4,0.5-0.3,1,0.2,1.3c-0.6-0.2-0.4,0-0.9-0.4c0.5,0.8-0.2,0.3,0,1c-0.7-0.1-0.7-0.7-0.9-0.1
							C250.2,338.1,250.4,337.5,250.4,337.5z M240.8,346.7C240.8,346.7,240.8,346.7,240.8,346.7c0.1-0.1,0.1-0.2,0.2-0.2
							C241,346.6,240.9,346.6,240.8,346.7z M240,347.4c0.1-0.1,0.3-0.2,0.4-0.3c0.1,0.1,0.2,0.3,0.1,0.4
							C240.5,347.3,240.2,347.4,240,347.4z M244.2,349.1c-0.1,0.2-0.2,0.1-0.3,0c0.1-0.1,0.1-0.1,0.2-0.2c0,0,0,0,0-0.1
							C244.1,348.9,244.1,349,244.2,349.1z"/>
						<path class="st1" d="M244,348.3C244,348.3,244,348.3,244,348.3c0-0.1-0.1-0.1-0.1-0.1C243.9,348.3,243.9,348.3,244,348.3
							C243.9,348.4,243.9,348.3,244,348.3z"/>
						<path class="st1" d="M162.8,407.5L162.8,407.5C162.8,407.4,162.8,407.4,162.8,407.5C162.8,407.4,162.8,407.4,162.8,407.5z"/>
						<polygon class="st1" points="227,355.6 227.1,355.7 227.1,355.6 						"/>
						<path class="st1" d="M156.8,409.5c0,0-0.1-0.1-0.1-0.1C156.7,409.5,156.7,409.5,156.8,409.5z"/>
						<path class="st1" d="M154.6,411l-0.4,0.1C154.4,411.1,154.5,411,154.6,411z"/>
						<path class="st1" d="M152.8,412c0,0.1,0.1,0.2,0.1,0.2c0,0,0,0,0,0L152.8,412z"/>
						<path class="st1" d="M178.3,392.3C178.3,392.3,178.3,392.2,178.3,392.3C178.4,392,178.3,392.1,178.3,392.3z"/>
						<path class="st1" d="M171.4,399c0-0.1,0-0.3,0.1-0.4C171.3,398.7,171.2,398.8,171.4,399z"/>
						<path class="st1" d="M186.5,385.4C186.5,385.4,186.5,385.4,186.5,385.4C186.5,385.3,186.5,385.3,186.5,385.4L186.5,385.4z"/>
						<path class="st1" d="M171.8,398.4c-0.2,0-0.3,0.1-0.4,0.3C171.6,398.6,171.8,398.5,171.8,398.4z"/>
						<path class="st1" d="M145.6,417L145.6,417c-0.1,0.1-0.1,0.1,0,0.1L145.6,417z"/>
						<path class="st1" d="M145.6,417.1l0,0.1C145.6,417.2,145.6,417.2,145.6,417.1z"/>
						<path class="st1" d="M145.4,417.5l0.1-0.2C145.5,417.3,145.4,417.3,145.4,417.5z"/>
						<path class="st1" d="M147.9,415.6l-0.1-0.2C147.8,415.5,147.9,415.5,147.9,415.6z"/>
						<path class="st1" d="M148.5,415.1c-0.2,0.1-0.7-0.1-0.8,0.2l0.1,0.1C147.7,415.1,148.6,415.5,148.5,415.1z"/>
						<path class="st1" d="M152.8,415.1l-0.6,0.3c0.2,0.1,0.5,0.2,0.3,0.5C153.5,415.8,152,415.6,152.8,415.1z"/>
						<path class="st1" d="M154.7,414.1c-0.2,0.3,0.2,0.3,0.2,0.4C155,414.1,155,414.1,154.7,414.1z"/>
						<path class="st1" d="M166.9,405l0.3,0.4C167.4,405.2,167.1,405.2,166.9,405z"/>
						<polygon class="st1" points="167.7,401.1 167.3,401 167.5,401.5 						"/>
						<polygon class="st1" points="171.3,403 171.2,403.1 171.5,402.7 						"/>
						<path class="st1" d="M191.8,387.5l-0.4-0.5C191.3,387.3,191.7,387.9,191.8,387.5z"/>
						<path class="st1" d="M200.3,380.4c0.3,0.2,0.7,0.2,0.6-0.2C200.7,380.3,200.4,380.3,200.3,380.4z"/>
						<polygon class="st1" points="227.7,361.4 227.6,361.7 227.9,361.3 						"/>
					</g>
				</g>
			</g>
		</g>
	</g>
</g>
</svg>
